<svg width="24" height="26" viewBox="0 0 24 26" fill="none" xmlns="http://www.w3.org/2000/svg">
<g filter="url(#filter0_i_579_3622)">
<path d="M18.8347 11.7694L22.7087 9.29553V14.2434L18.8347 11.7694Z" fill="#3A475A"/>
</g>
<g filter="url(#filter1_i_579_3622)">
<path d="M21.0156 11.7378C21.0156 14.3332 20.7895 14.3781 19.8391 14.2236C19.3477 14.2236 18.9495 13.1106 18.9495 11.7378C18.9495 10.3649 19.3477 9.25194 19.8391 9.25194C20.6173 9.08898 21.0156 9.14236 21.0156 11.7378Z" fill="#DB7474"/>
</g>
<g filter="url(#filter2_i_579_3622)">
<path d="M23.5443 8.85565H23.0209C22.7692 8.85565 22.5652 9.06107 22.5652 9.31448V14.1102C22.5652 14.3636 22.7692 14.569 23.0209 14.569H23.5443C23.796 14.569 24 14.3636 24 14.1102V9.31448C24 9.06107 23.796 8.85565 23.5443 8.85565Z" fill="#48D5F4"/>
</g>
<g filter="url(#filter3_i_579_3622)">
<path d="M18.5395 7.88434H5.06877C4.2718 7.88434 3.62573 8.53484 3.62573 9.33728V18.4294C3.62573 19.2318 4.2718 19.8823 5.06877 19.8823H18.5395C19.3365 19.8823 19.9826 19.2318 19.9826 18.4294V9.33728C19.9826 8.53484 19.3365 7.88434 18.5395 7.88434Z" fill="#48D5F4"/>
</g>
<path d="M16.2253 9.59839H7.32563C6.48671 9.59839 5.80664 10.2831 5.80664 11.1278V16.0105C5.80664 16.8552 6.48671 17.5399 7.32563 17.5399H16.2253C17.0642 17.5399 17.7443 16.8552 17.7443 16.0105V11.1278C17.7443 10.2831 17.0642 9.59839 16.2253 9.59839Z" fill="#545353"/>
<path d="M15.7929 19.311C16.1099 19.311 16.3668 19.0424 16.3668 18.7111C16.3668 18.3798 16.1099 18.1112 15.7929 18.1112C15.4759 18.1112 15.219 18.3798 15.219 18.7111C15.219 19.0424 15.4759 19.311 15.7929 19.311Z" fill="#C02F0F"/>
<path d="M17.7441 19.311C18.0611 19.311 18.318 19.0424 18.318 18.7111C18.318 18.3798 18.0611 18.1112 17.7441 18.1112C17.4271 18.1112 17.1702 18.3798 17.1702 18.7111C17.1702 19.0424 17.4271 19.311 17.7441 19.311Z" fill="#595656"/>
<path d="M8.6475 13.712C8.91693 13.712 9.13534 13.3666 9.13534 12.9407C9.13534 12.5147 8.91693 12.1694 8.6475 12.1694C8.37808 12.1694 8.15967 12.5147 8.15967 12.9407C8.15967 13.3666 8.37808 13.712 8.6475 13.712Z" fill="white"/>
<path d="M15.2189 12.9407C15.2189 13.3667 15.0005 13.7119 14.7311 13.7119C14.4616 13.7119 14.2432 13.3667 14.2432 12.9407C14.2432 12.5147 14.4616 12.1694 14.7311 12.1694C15.0005 12.1694 15.2189 12.5147 15.2189 12.9407Z" fill="white"/>
<path d="M13.1264 13.8258C13.1915 13.8926 13.2143 13.991 13.1966 14.0829C13.1001 14.5834 12.5013 14.9689 11.777 14.9689C11.0282 14.9689 10.3623 14.5459 10.3411 14.0299C10.3386 13.971 10.3547 13.9118 10.3859 13.8617C10.6436 13.4466 11.0273 14.0263 11.777 14.0263C12.4933 14.0263 12.8522 13.5451 13.1264 13.8258Z" fill="white"/>
<g filter="url(#filter4_i_579_3622)">
<path d="M2.48364 11.7123H3.62573V10.4058H2.48364V11.7123Z" fill="#464545"/>
</g>
<g filter="url(#filter5_i_579_3622)">
<path d="M2.30072 10.1684H1.61432C1.48849 10.1684 1.38647 10.2711 1.38647 10.3978V11.7568C1.38647 11.8835 1.48849 11.9862 1.61432 11.9862H2.30072C2.42656 11.9862 2.52857 11.8835 2.52857 11.7568V10.3978C2.52857 10.2711 2.42656 10.1684 2.30072 10.1684Z" fill="#48D5F4"/>
</g>
<path d="M14.6809 5.59906H9.48961C8.86284 5.59906 8.35474 6.11065 8.35474 6.74172V6.74173C8.35474 7.3728 8.86284 7.88439 9.48961 7.88439H14.6809C15.3077 7.88439 15.8158 7.3728 15.8158 6.74173V6.74172C15.8158 6.11065 15.3077 5.59906 14.6809 5.59906Z" fill="#5D5D5D"/>
<path d="M8.90012 7.8844C10.2472 7.8844 11.3393 6.79728 11.3393 5.45624C11.3393 4.1152 10.2472 3.02808 8.90012 3.02808C7.553 3.02808 6.46094 4.1152 6.46094 5.45624C6.46094 6.79728 7.553 7.8844 8.90012 7.8844Z" fill="#4C4C4C"/>
<g filter="url(#filter6_i_579_3622)">
<path d="M8.89995 6.68457C9.58143 6.68457 10.1339 6.13461 10.1339 5.45621C10.1339 4.7778 9.58143 4.22784 8.89995 4.22784C8.21847 4.22784 7.66602 4.7778 7.66602 5.45621C7.66602 6.13461 8.21847 6.68457 8.89995 6.68457Z" fill="#F27559"/>
</g>
<path d="M14.8689 7.8844C16.216 7.8844 17.3081 6.79728 17.3081 5.45624C17.3081 4.1152 16.216 3.02808 14.8689 3.02808C13.5217 3.02808 12.4297 4.1152 12.4297 5.45624C12.4297 6.79728 13.5217 7.8844 14.8689 7.8844Z" fill="#4C4C4C"/>
<g filter="url(#filter7_i_579_3622)">
<path d="M14.8689 6.68457C15.5504 6.68457 16.1029 6.13461 16.1029 5.45621C16.1029 4.7778 15.5504 4.22784 14.8689 4.22784C14.1875 4.22784 13.635 4.7778 13.635 5.45621C13.635 6.13461 14.1875 6.68457 14.8689 6.68457Z" fill="#F27559"/>
</g>
<path d="M0.833229 25.6176H0.230973C0.217128 25.6176 0.210205 25.6089 0.210205 25.5915L0.220589 21.9139C0.220589 21.9 0.227512 21.8931 0.241356 21.8931H0.890336C0.904181 21.8931 0.916295 21.9 0.926677 21.9139L1.41212 22.6197L1.89496 21.9139C1.90535 21.9 1.91833 21.8931 1.9339 21.8931H2.58548C2.60105 21.8931 2.60884 21.9 2.60884 21.9139L2.61922 25.5915C2.61922 25.6089 2.61231 25.6176 2.59846 25.6176H1.9962C1.98236 25.6176 1.97543 25.6089 1.97543 25.5915L1.97024 22.8601L1.41212 23.6756L0.859189 22.8601L0.853994 25.5915C0.853994 25.6089 0.847075 25.6176 0.833229 25.6176ZM4.04958 25.6699C3.86094 25.6699 3.68701 25.6211 3.5278 25.5236C3.37031 25.4259 3.24311 25.2961 3.1462 25.1341C3.05101 24.9703 3.00342 24.7908 3.00342 24.5957L3.00862 22.8993C3.00862 22.7007 3.05621 22.5221 3.15139 22.3635C3.24484 22.2032 3.37118 22.0751 3.5304 21.9793C3.68961 21.8817 3.86267 21.8329 4.04958 21.8329C4.24341 21.8329 4.41733 21.8808 4.57136 21.9767C4.72712 22.0725 4.85172 22.2015 4.94517 22.3635C5.04036 22.5239 5.08795 22.7024 5.08795 22.8993L5.09314 24.5957C5.09314 24.7908 5.04641 24.9694 4.95296 25.1315C4.85778 25.2953 4.73144 25.4259 4.57396 25.5236C4.41647 25.6211 4.24168 25.6699 4.04958 25.6699ZM4.04958 25.0243C4.15688 25.0243 4.25033 24.9808 4.32994 24.8936C4.40955 24.8047 4.44935 24.7054 4.44935 24.5957L4.44416 22.8993C4.44416 22.7809 4.40695 22.6806 4.33254 22.5987C4.25812 22.5168 4.1638 22.4759 4.04958 22.4759C3.94055 22.4759 3.8471 22.516 3.76922 22.5961C3.69134 22.6763 3.6524 22.7774 3.6524 22.8993V24.5957C3.6524 24.7124 3.69134 24.8135 3.76922 24.8989C3.8471 24.9825 3.94055 25.0243 4.04958 25.0243ZM6.62733 25.6176H5.98355C5.96797 25.6176 5.95932 25.6089 5.95759 25.5915L5.22294 21.9139C5.21948 21.9 5.2264 21.8931 5.24371 21.8931H5.84596C5.8598 21.8931 5.86846 21.9 5.87192 21.9139L6.30803 24.3657L6.73377 21.9139C6.73723 21.9 6.74588 21.8931 6.75973 21.8931H7.3542C7.37323 21.8931 7.38016 21.9 7.37496 21.9139L6.65329 25.5915C6.65157 25.6089 6.64291 25.6176 6.62733 25.6176ZM8.31472 25.6176H7.71244C7.69513 25.6176 7.68647 25.6089 7.68647 25.5915L7.69163 21.9139C7.69163 21.9 7.69862 21.8931 7.71244 21.8931H8.30948C8.3233 21.8931 8.33029 21.9 8.33029 21.9139L8.33546 25.5915C8.33546 25.6089 8.32854 25.6176 8.31472 25.6176ZM10.542 25.6176H8.82351C8.80961 25.6176 8.8027 25.6089 8.8027 25.5915L8.80794 21.9139C8.80794 21.9 8.81485 21.8931 8.82867 21.8931H10.5368C10.5507 21.8931 10.5576 21.9018 10.5576 21.9192V22.5177C10.5576 22.5317 10.5507 22.5386 10.5368 22.5386H9.44652V23.3751H10.5368C10.5507 23.3751 10.5576 23.382 10.5576 23.3959L10.5627 24.0023C10.5627 24.0163 10.5558 24.0232 10.542 24.0232H9.44652V24.959H10.542C10.5558 24.959 10.5627 24.9677 10.5627 24.9851V25.5968C10.5627 25.6107 10.5558 25.6176 10.542 25.6176ZM12.1696 25.6176H11.57C11.5544 25.6176 11.5466 25.6089 11.5466 25.5915V22.5386H10.8561C10.8388 22.5386 10.8302 22.5299 10.8302 22.5125L10.8353 21.9139C10.8353 21.9 10.8422 21.8931 10.8561 21.8931H12.8757C12.8948 21.8931 12.9043 21.9 12.9043 21.9139V22.5125C12.9043 22.5299 12.8974 22.5386 12.8835 22.5386H12.1852L12.1904 25.5915C12.1904 25.6089 12.1835 25.6176 12.1696 25.6176ZM13.7921 25.6176H13.1898C13.1725 25.6176 13.1639 25.6089 13.1639 25.5915L13.1691 21.9139C13.1691 21.9 13.176 21.8931 13.1898 21.8931H13.7869C13.8008 21.8931 13.8077 21.9 13.8077 21.9139L13.8128 25.5915C13.8128 25.6089 13.8059 25.6176 13.7921 25.6176ZM15.2588 25.6699C15.0667 25.6699 14.891 25.6211 14.7318 25.5236C14.5743 25.4259 14.4488 25.2953 14.3554 25.1315C14.2637 24.9659 14.2178 24.7821 14.2178 24.58L14.223 22.9098C14.223 22.7111 14.268 22.5317 14.358 22.3714C14.448 22.2093 14.5717 22.0795 14.7293 21.9819C14.8884 21.8826 15.0649 21.8329 15.2588 21.8329C15.4561 21.8329 15.6318 21.8808 15.7858 21.9767C15.9415 22.0725 16.0653 22.2024 16.1569 22.3661C16.2504 22.5282 16.2972 22.7094 16.2972 22.9098V23.1555C16.2972 23.1694 16.2902 23.1764 16.2764 23.1764H15.6793C15.6655 23.1764 15.6586 23.1694 15.6586 23.1555V22.9098C15.6586 22.7913 15.6205 22.6893 15.5443 22.604C15.4682 22.5186 15.373 22.4759 15.2588 22.4759C15.1325 22.4759 15.0356 22.5195 14.968 22.6066C14.9005 22.6937 14.8668 22.7948 14.8668 22.9098V24.58C14.8668 24.7107 14.9048 24.8178 14.981 24.9015C15.0572 24.9834 15.1498 25.0243 15.2588 25.0243C15.373 25.0243 15.4682 24.979 15.5443 24.8884C15.6205 24.796 15.6586 24.6933 15.6586 24.58V24.3317C15.6586 24.3177 15.6655 24.3107 15.6793 24.3107H16.2816C16.2954 24.3107 16.3023 24.3177 16.3023 24.3317V24.58C16.3023 24.7804 16.2556 24.9633 16.1622 25.1288C16.0669 25.2926 15.9415 25.4242 15.7858 25.5236C15.63 25.6211 15.4543 25.6699 15.2588 25.6699ZM17.3121 25.6176H16.7099C16.696 25.6176 16.6891 25.6089 16.6891 25.5915L16.6995 21.9192C16.6995 21.9018 16.7064 21.8931 16.7203 21.8931H17.3174C17.3312 21.8931 17.3381 21.9018 17.3381 21.9192V23.1869L18.1714 21.9139C18.1853 21.9 18.1982 21.8931 18.2104 21.8931H18.8204C18.836 21.8931 18.8394 21.9 18.8307 21.9139L17.9118 23.3907L18.9424 25.5968C18.951 25.6107 18.9424 25.6176 18.9164 25.6176H18.2674C18.2502 25.6176 18.2398 25.6107 18.2363 25.5968L17.5173 24.0232L17.3329 24.316V25.5915C17.3329 25.6089 17.326 25.6176 17.3121 25.6176ZM20.9205 25.6176H19.202C19.1882 25.6176 19.1813 25.6089 19.1813 25.5915L19.1864 21.9139C19.1864 21.9 19.1933 21.8931 19.2072 21.8931H20.9153C20.9292 21.8931 20.9361 21.9018 20.9361 21.9192V22.5177C20.9361 22.5317 20.9292 22.5386 20.9153 22.5386H19.825V23.3751H20.9153C20.9292 23.3751 20.9361 23.382 20.9361 23.3959L20.9413 24.0023C20.9413 24.0163 20.9343 24.0232 20.9205 24.0232H19.825V24.959H20.9205C20.9343 24.959 20.9413 24.9677 20.9413 24.9851V25.5968C20.9413 25.6107 20.9343 25.6176 20.9205 25.6176ZM22.5482 25.6176H21.9485C21.9329 25.6176 21.9252 25.6089 21.9252 25.5915V22.5386H21.2346C21.2173 22.5386 21.2086 22.5299 21.2086 22.5125L21.2138 21.9139C21.2138 21.9 21.2208 21.8931 21.2346 21.8931H23.2543C23.2733 21.8931 23.2828 21.9 23.2828 21.9139V22.5125C23.2828 22.5299 23.2758 22.5386 23.262 22.5386H22.5637L22.5689 25.5915C22.5689 25.6089 22.562 25.6176 22.5482 25.6176Z" fill="#969696"/>
<defs>
<filter id="filter0_i_579_3622" x="18.8347" y="9.29553" width="3.87402" height="4.94788" filterUnits="userSpaceOnUse" color-interpolation-filters="sRGB">
<feFlood flood-opacity="0" result="BackgroundImageFix"/>
<feBlend mode="normal" in="SourceGraphic" in2="BackgroundImageFix" result="shape"/>
<feColorMatrix in="SourceAlpha" type="matrix" values="0 0 0 0 0 0 0 0 0 0 0 0 0 0 0 0 0 0 127 0" result="hardAlpha"/>
<feOffset dy="-15"/>
<feGaussianBlur stdDeviation="2"/>
<feComposite in2="hardAlpha" operator="arithmetic" k2="-1" k3="1"/>
<feColorMatrix type="matrix" values="0 0 0 0 0 0 0 0 0 0 0 0 0 0 0 0 0 0 0.25 0"/>
<feBlend mode="normal" in2="shape" result="effect1_innerShadow_579_3622"/>
</filter>
<filter id="filter1_i_579_3622" x="18.9495" y="9.19843" width="2.06616" height="5.07556" filterUnits="userSpaceOnUse" color-interpolation-filters="sRGB">
<feFlood flood-opacity="0" result="BackgroundImageFix"/>
<feBlend mode="normal" in="SourceGraphic" in2="BackgroundImageFix" result="shape"/>
<feColorMatrix in="SourceAlpha" type="matrix" values="0 0 0 0 0 0 0 0 0 0 0 0 0 0 0 0 0 0 127 0" result="hardAlpha"/>
<feOffset dy="-15"/>
<feGaussianBlur stdDeviation="2"/>
<feComposite in2="hardAlpha" operator="arithmetic" k2="-1" k3="1"/>
<feColorMatrix type="matrix" values="0 0 0 0 0 0 0 0 0 0 0 0 0 0 0 0 0 0 0.25 0"/>
<feBlend mode="normal" in2="shape" result="effect1_innerShadow_579_3622"/>
</filter>
<filter id="filter2_i_579_3622" x="22.5652" y="8.85565" width="1.43481" height="5.71332" filterUnits="userSpaceOnUse" color-interpolation-filters="sRGB">
<feFlood flood-opacity="0" result="BackgroundImageFix"/>
<feBlend mode="normal" in="SourceGraphic" in2="BackgroundImageFix" result="shape"/>
<feColorMatrix in="SourceAlpha" type="matrix" values="0 0 0 0 0 0 0 0 0 0 0 0 0 0 0 0 0 0 127 0" result="hardAlpha"/>
<feOffset dy="-15"/>
<feGaussianBlur stdDeviation="2"/>
<feComposite in2="hardAlpha" operator="arithmetic" k2="-1" k3="1"/>
<feColorMatrix type="matrix" values="0 0 0 0 0 0 0 0 0 0 0 0 0 0 0 0 0 0 0.25 0"/>
<feBlend mode="normal" in2="shape" result="effect1_innerShadow_579_3622"/>
</filter>
<filter id="filter3_i_579_3622" x="3.62573" y="7.88434" width="26.3569" height="11.998" filterUnits="userSpaceOnUse" color-interpolation-filters="sRGB">
<feFlood flood-opacity="0" result="BackgroundImageFix"/>
<feBlend mode="normal" in="SourceGraphic" in2="BackgroundImageFix" result="shape"/>
<feColorMatrix in="SourceAlpha" type="matrix" values="0 0 0 0 0 0 0 0 0 0 0 0 0 0 0 0 0 0 127 0" result="hardAlpha"/>
<feOffset dx="20"/>
<feGaussianBlur stdDeviation="5"/>
<feComposite in2="hardAlpha" operator="arithmetic" k2="-1" k3="1"/>
<feColorMatrix type="matrix" values="0 0 0 0 0 0 0 0 0 0 0 0 0 0 0 0 0 0 0.14 0"/>
<feBlend mode="normal" in2="shape" result="effect1_innerShadow_579_3622"/>
</filter>
<filter id="filter4_i_579_3622" x="2.48364" y="10.4058" width="1.14209" height="1.30658" filterUnits="userSpaceOnUse" color-interpolation-filters="sRGB">
<feFlood flood-opacity="0" result="BackgroundImageFix"/>
<feBlend mode="normal" in="SourceGraphic" in2="BackgroundImageFix" result="shape"/>
<feColorMatrix in="SourceAlpha" type="matrix" values="0 0 0 0 0 0 0 0 0 0 0 0 0 0 0 0 0 0 127 0" result="hardAlpha"/>
<feOffset dy="6"/>
<feGaussianBlur stdDeviation="2"/>
<feComposite in2="hardAlpha" operator="arithmetic" k2="-1" k3="1"/>
<feColorMatrix type="matrix" values="0 0 0 0 0.756706 0 0 0 0 0.737 0 0 0 0 0.737 0 0 0 0.25 0"/>
<feBlend mode="normal" in2="shape" result="effect1_innerShadow_579_3622"/>
</filter>
<filter id="filter5_i_579_3622" x="1.38647" y="10.1684" width="1.14209" height="1.81781" filterUnits="userSpaceOnUse" color-interpolation-filters="sRGB">
<feFlood flood-opacity="0" result="BackgroundImageFix"/>
<feBlend mode="normal" in="SourceGraphic" in2="BackgroundImageFix" result="shape"/>
<feColorMatrix in="SourceAlpha" type="matrix" values="0 0 0 0 0 0 0 0 0 0 0 0 0 0 0 0 0 0 127 0" result="hardAlpha"/>
<feOffset dy="-8"/>
<feGaussianBlur stdDeviation="2"/>
<feComposite in2="hardAlpha" operator="arithmetic" k2="-1" k3="1"/>
<feColorMatrix type="matrix" values="0 0 0 0 0 0 0 0 0 0 0 0 0 0 0 0 0 0 0.25 0"/>
<feBlend mode="normal" in2="shape" result="effect1_innerShadow_579_3622"/>
</filter>
<filter id="filter6_i_579_3622" x="7.66602" y="0.227844" width="6.46777" height="6.45673" filterUnits="userSpaceOnUse" color-interpolation-filters="sRGB">
<feFlood flood-opacity="0" result="BackgroundImageFix"/>
<feBlend mode="normal" in="SourceGraphic" in2="BackgroundImageFix" result="shape"/>
<feColorMatrix in="SourceAlpha" type="matrix" values="0 0 0 0 0 0 0 0 0 0 0 0 0 0 0 0 0 0 127 0" result="hardAlpha"/>
<feOffset dx="6" dy="-5"/>
<feGaussianBlur stdDeviation="2"/>
<feComposite in2="hardAlpha" operator="arithmetic" k2="-1" k3="1"/>
<feColorMatrix type="matrix" values="0 0 0 0 0 0 0 0 0 0 0 0 0 0 0 0 0 0 0.25 0"/>
<feBlend mode="normal" in2="shape" result="effect1_innerShadow_579_3622"/>
</filter>
<filter id="filter7_i_579_3622" x="13.635" y="0.227844" width="6.46777" height="6.45673" filterUnits="userSpaceOnUse" color-interpolation-filters="sRGB">
<feFlood flood-opacity="0" result="BackgroundImageFix"/>
<feBlend mode="normal" in="SourceGraphic" in2="BackgroundImageFix" result="shape"/>
<feColorMatrix in="SourceAlpha" type="matrix" values="0 0 0 0 0 0 0 0 0 0 0 0 0 0 0 0 0 0 127 0" result="hardAlpha"/>
<feOffset dx="6" dy="-5"/>
<feGaussianBlur stdDeviation="2"/>
<feComposite in2="hardAlpha" operator="arithmetic" k2="-1" k3="1"/>
<feColorMatrix type="matrix" values="0 0 0 0 0 0 0 0 0 0 0 0 0 0 0 0 0 0 0.25 0"/>
<feBlend mode="normal" in2="shape" result="effect1_innerShadow_579_3622"/>
</filter>
</defs>
</svg>
