<svg width="153" height="32" viewBox="0 0 153 32" fill="none" xmlns="http://www.w3.org/2000/svg">
<g clip-path="url(#clip0_1462_4436)">
<path d="M0 4.24194H5.69521L12.3906 21.1687H12.4906L19.1625 4.24194H24.8754V27.7994H20.4686V11.8787H18.1976L23.128 4.88913L13.9909 27.7935H10.8903L1.74739 4.89501L6.67775 11.8846H4.38908V27.7994H0V4.24194Z" fill="#7F7F7F"/>
<path d="M27.6171 4.24194H32.5474V27.7994H27.6171V4.24194ZM30.0822 24.1222H36.7894C38.1956 24.1222 39.2722 23.8339 40.0194 23.2632C40.7725 22.6925 41.1432 21.863 41.1432 20.7745V20.7392C41.1432 20.0214 40.9726 19.4154 40.6313 18.9212C40.2901 18.427 39.7782 18.0505 39.0957 17.8034C38.4133 17.5504 37.5778 17.4268 36.5717 17.4268H30.0822V14.0791H35.9893C37.3836 14.0791 38.4427 13.8026 39.1663 13.2437C39.89 12.6847 40.2548 11.9022 40.2548 10.8785V10.8432C40.2548 9.90774 39.9312 9.18407 39.2899 8.67221C38.6486 8.16034 37.7484 7.90735 36.5953 7.90735H30.0822V4.24194H37.8661C39.3546 4.24194 40.6431 4.48317 41.7198 4.95973C42.7965 5.43629 43.6319 6.11877 44.2144 7.00718C44.8027 7.89559 45.0969 8.94285 45.0969 10.149V10.1843C45.0969 11.055 44.8969 11.8552 44.5027 12.5906C44.1026 13.326 43.5613 13.9379 42.8788 14.4204C42.1905 14.9028 41.4138 15.2088 40.5431 15.3264V15.4264C41.6433 15.4912 42.6141 15.7795 43.4672 16.2854C44.3144 16.7914 44.9851 17.4562 45.4676 18.2741C45.95 19.0977 46.1912 20.0214 46.1912 21.0569V21.0922C46.1912 22.4631 45.8617 23.6516 45.2028 24.6518C44.5438 25.6519 43.6084 26.4286 42.3964 26.9757C41.1844 27.5229 39.7312 27.7994 38.0485 27.7994H30.0822V24.1222Z" fill="#7F7F7F"/>
<path d="M91.1351 2.20044H95.9183V25.7579H91.1351V2.20044ZM95.33 15.2559H96.0184L101.925 8.25454H107.326L99.2484 17.4622H98.1894L95.33 20.6099V15.2559V15.2559ZM96.7479 18.0329L99.7661 14.391L107.65 25.752H102.149L96.7479 18.0329Z" fill="#7F7F7F"/>
<path d="M109.639 5.27749C109.144 4.78328 108.897 4.19493 108.897 3.52421C108.897 2.83584 109.144 2.25338 109.639 1.77093C110.133 1.28849 110.739 1.04138 111.457 1.04138C112.174 1.04138 112.78 1.2826 113.269 1.77093C113.757 2.25338 114.004 2.84173 114.004 3.52421C114.004 4.20081 113.757 4.78328 113.269 5.27749C112.78 5.7717 112.174 6.01881 111.457 6.01881C110.739 6.01881 110.133 5.7717 109.639 5.27749ZM109.056 8.25453H113.839V25.752H109.056V8.25453Z" fill="#7F7F7F"/>
<path d="M117.022 8.25452H121.788V11.1257H121.888C122.347 10.1255 123.018 9.33708 123.912 8.7605C124.806 8.18392 125.907 7.89563 127.224 7.89563C129.148 7.89563 130.637 8.47221 131.69 9.63126C132.737 10.7903 133.267 12.3965 133.267 14.4557V25.752H128.501V15.4559C128.501 14.3145 128.23 13.4261 127.695 12.7966C127.154 12.167 126.354 11.8493 125.289 11.8493C124.583 11.8493 123.965 12.0141 123.447 12.3377C122.924 12.6671 122.518 13.1143 122.229 13.6909C121.941 14.2674 121.8 14.9382 121.8 15.6971V25.752H117.034V8.25452H117.022Z" fill="#7F7F7F"/>
<path d="M140.274 31.1649C139.08 30.7236 138.138 30.1294 137.432 29.3763C136.726 28.6232 136.303 27.7819 136.15 26.8464L136.114 26.6993H140.768L140.815 26.8111C141.009 27.2347 141.421 27.6112 142.039 27.9407C142.657 28.2702 143.463 28.429 144.457 28.429C145.687 28.429 146.622 28.1349 147.264 27.5465C147.905 26.9582 148.228 26.1815 148.228 25.2108V22.5161H148.128C147.822 23.128 147.405 23.6516 146.881 24.0988C146.352 24.5459 145.74 24.8931 145.034 25.1343C144.334 25.3814 143.563 25.4991 142.722 25.4991C141.262 25.4991 140.003 25.1519 138.933 24.4518C137.868 23.7576 137.05 22.7574 136.473 21.4571C135.903 20.1569 135.614 18.6036 135.614 16.7974V16.7797C135.614 14.9206 135.903 13.3261 136.485 11.9965C137.067 10.6668 137.897 9.64896 138.968 8.94294C140.039 8.23692 141.309 7.88391 142.78 7.88391C143.61 7.88391 144.363 8.01923 145.051 8.28987C145.74 8.56051 146.34 8.94882 146.858 9.44892C147.375 9.94901 147.793 10.5432 148.105 11.2257H148.217V8.23692H152.982V25.2461C152.982 26.5404 152.635 27.6818 151.947 28.6644C151.258 29.6469 150.27 30.4177 148.993 30.9766C147.717 31.5296 146.199 31.812 144.445 31.812C142.863 31.8238 141.468 31.6061 140.274 31.1649ZM146.422 21.3983C146.999 20.9864 147.446 20.3981 147.77 19.6332C148.093 18.8684 148.252 17.9682 148.252 16.9209V16.9033C148.252 15.8678 148.093 14.9735 147.77 14.2204C147.446 13.4673 146.999 12.879 146.416 12.4671C145.834 12.0553 145.157 11.8494 144.387 11.8494C143.604 11.8494 142.916 12.0553 142.327 12.4613C141.739 12.8672 141.286 13.4497 140.974 14.2087C140.656 14.9676 140.503 15.8678 140.503 16.9092V16.9268C140.503 17.9741 140.662 18.8743 140.974 19.6391C141.292 20.3981 141.739 20.9864 142.327 21.4042C142.916 21.816 143.598 22.0219 144.387 22.0219C145.163 22.016 145.846 21.8101 146.422 21.3983Z" fill="#7F7F7F"/>
<path d="M75.5616 24.793C81.8004 24.793 86.8579 19.7355 86.8579 13.4967C86.8579 7.25796 81.8004 2.20044 75.5616 2.20044C69.3228 2.20044 64.2653 7.25796 64.2653 13.4967C64.2653 19.7355 69.3228 24.793 75.5616 24.793Z" stroke="#3461FD" stroke-width="4.39796" stroke-miterlimit="10"/>
<path d="M56.7051 25.1048C60.8773 25.1048 64.2595 21.7225 64.2595 17.5504C64.2595 13.3782 60.8773 9.99597 56.7051 9.99597C52.5329 9.99597 49.1507 13.3782 49.1507 17.5504C49.1507 21.7225 52.5329 25.1048 56.7051 25.1048Z" stroke="#3461FD" stroke-width="4.39796" stroke-miterlimit="10"/>
</g>
<defs>
<clipPath id="clip0_1462_4436">
<rect width="153" height="31.8238" fill="white"/>
</clipPath>
</defs>
</svg>
