<svg width="51" height="55" viewBox="0 0 51 55" fill="none" xmlns="http://www.w3.org/2000/svg">
<g filter="url(#filter0_i_1193_446)">
<path d="M40.0237 24.8968L48.2558 19.6636V30.1302L40.0237 24.8968Z" fill="#3A475A"/>
</g>
<g filter="url(#filter1_i_1193_446)">
<path d="M44.6581 24.8299C44.6581 30.3202 44.1776 30.4154 42.1579 30.0884C41.1139 30.0884 40.2676 27.7341 40.2676 24.8299C40.2676 21.9258 41.1139 19.5715 42.1579 19.5715C43.8117 19.2267 44.6581 19.3397 44.6581 24.8299Z" fill="#DB7474"/>
</g>
<g filter="url(#filter2_i_1193_446)">
<path d="M50.0316 18.7332H48.9193C48.3845 18.7332 47.951 19.1677 47.951 19.7037V29.8484C47.951 30.3845 48.3845 30.819 48.9193 30.819H50.0316C50.5664 30.819 50.9999 30.3845 50.9999 29.8484V19.7037C50.9999 19.1677 50.5664 18.7332 50.0316 18.7332Z" fill="#48D5F4"/>
</g>
<g filter="url(#filter3_i_1193_446)">
<path d="M39.3964 16.6785H10.771C9.07744 16.6785 7.70454 18.0545 7.70454 19.752V38.9853C7.70454 40.6828 9.07744 42.0589 10.771 42.0589H39.3964C41.0899 42.0589 42.4628 40.6828 42.4628 38.9853V19.752C42.4628 18.0545 41.0899 16.6785 39.3964 16.6785Z" fill="#48D5F4"/>
</g>
<path d="M34.4787 20.3042H15.5669C13.7842 20.3042 12.339 21.7527 12.339 23.5395V33.8683C12.339 35.6551 13.7842 37.1036 15.5669 37.1036H34.4787C36.2613 37.1036 37.7065 35.6551 37.7065 33.8683V23.5395C37.7065 21.7527 36.2613 20.3042 34.4787 20.3042Z" fill="#545353"/>
<path d="M33.5599 40.8503C34.2335 40.8503 34.7795 40.2821 34.7795 39.5813C34.7795 38.8804 34.2335 38.3123 33.5599 38.3123C32.8864 38.3123 32.3403 38.8804 32.3403 39.5813C32.3403 40.2821 32.8864 40.8503 33.5599 40.8503Z" fill="#C02F0F"/>
<path d="M37.7064 40.8503C38.38 40.8503 38.926 40.2821 38.926 39.5813C38.926 38.8804 38.38 38.3123 37.7064 38.3123C37.0329 38.3123 36.4868 38.8804 36.4868 39.5813C36.4868 40.2821 37.0329 40.8503 37.7064 40.8503Z" fill="#595656"/>
<path d="M18.376 29.0061C18.9485 29.0061 19.4126 28.2756 19.4126 27.3745C19.4126 26.4734 18.9485 25.7429 18.376 25.7429C17.8034 25.7429 17.3393 26.4734 17.3393 27.3745C17.3393 28.2756 17.8034 29.0061 18.376 29.0061Z" fill="white"/>
<path d="M32.3403 27.3745C32.3403 28.2757 31.8761 29.006 31.3037 29.006C30.731 29.006 30.2669 28.2757 30.2669 27.3745C30.2669 26.4734 30.731 25.7429 31.3037 25.7429C31.8761 25.7429 32.3403 26.4734 32.3403 27.3745Z" fill="white"/>
<path d="M27.8936 29.2469C28.0321 29.3882 28.0805 29.5963 28.0429 29.7908C27.8379 30.8495 26.5654 31.665 25.0263 31.665C23.435 31.665 22.0199 30.7703 21.9749 29.6787C21.9697 29.554 22.0039 29.4288 22.0701 29.3228C22.6177 28.4447 23.4332 29.6711 25.0263 29.6711C26.5484 29.6711 27.311 28.6531 27.8936 29.2469Z" fill="white"/>
<g filter="url(#filter4_i_1193_446)">
<path d="M5.2776 24.7761H7.70456V22.0123H5.2776V24.7761Z" fill="#464545"/>
</g>
<g filter="url(#filter5_i_1193_446)">
<path d="M4.8891 21.51H3.4305C3.16309 21.51 2.94632 21.7273 2.94632 21.9953V24.8701C2.94632 25.1381 3.16309 25.3554 3.4305 25.3554H4.8891C5.1565 25.3554 5.37327 25.1381 5.37327 24.8701V21.9953C5.37327 21.7273 5.1565 21.51 4.8891 21.51Z" fill="#48D5F4"/>
</g>
<path d="M31.197 11.8441H20.1656C18.8337 11.8441 17.754 12.9263 17.754 14.2613V14.2613C17.754 15.5963 18.8337 16.6785 20.1656 16.6785H31.197C32.5289 16.6785 33.6086 15.5963 33.6086 14.2613V14.2613C33.6086 12.9263 32.5289 11.8441 31.197 11.8441Z" fill="#5D5D5D"/>
<path d="M18.9126 16.6785C21.7752 16.6785 24.0959 14.3788 24.0959 11.542C24.0959 8.70521 21.7752 6.40552 18.9126 6.40552C16.05 6.40552 13.7293 8.70521 13.7293 11.542C13.7293 14.3788 16.05 16.6785 18.9126 16.6785Z" fill="#4C4C4C"/>
<g filter="url(#filter6_i_1193_446)">
<path d="M18.9126 14.1405C20.3608 14.1405 21.5347 12.9772 21.5347 11.5421C21.5347 10.107 20.3608 8.9436 18.9126 8.9436C17.4645 8.9436 16.2905 10.107 16.2905 11.5421C16.2905 12.9772 17.4645 14.1405 18.9126 14.1405Z" fill="#F27559"/>
</g>
<path d="M31.5963 16.6785C34.4589 16.6785 36.7795 14.3788 36.7795 11.542C36.7795 8.70521 34.4589 6.40552 31.5963 6.40552C28.7336 6.40552 26.413 8.70521 26.413 11.542C26.413 14.3788 28.7336 16.6785 31.5963 16.6785Z" fill="#4C4C4C"/>
<g filter="url(#filter7_i_1193_446)">
<path d="M31.5963 14.1405C33.0444 14.1405 34.2184 12.9772 34.2184 11.5421C34.2184 10.107 33.0444 8.9436 31.5963 8.9436C30.1481 8.9436 28.9742 10.107 28.9742 11.5421C28.9742 12.9772 30.1481 14.1405 31.5963 14.1405Z" fill="#F27559"/>
</g>
<path d="M1.77075 54.1911H0.490954C0.461534 54.1911 0.446823 54.1727 0.446823 54.1358L0.468889 46.3564C0.468889 46.3269 0.4836 46.3122 0.51302 46.3122H1.8921C1.92152 46.3122 1.94726 46.3269 1.96933 46.3564L3.0009 47.8493L4.02693 46.3564C4.049 46.3269 4.07658 46.3122 4.10968 46.3122H5.49428C5.52737 46.3122 5.54393 46.3269 5.54393 46.3564L5.56599 54.1358C5.56599 54.1727 5.55129 54.1911 5.52186 54.1911H4.24207C4.21265 54.1911 4.19793 54.1727 4.19793 54.1358L4.18691 48.3579L3.0009 50.0829L1.82591 48.3579L1.81487 54.1358C1.81487 54.1727 1.80017 54.1911 1.77075 54.1911ZM8.60549 54.3018C8.20464 54.3018 7.83504 54.1986 7.49671 53.9921C7.16205 53.7856 6.89175 53.5111 6.68581 53.1683C6.48354 52.8218 6.38241 52.4421 6.38241 52.0293L6.39345 48.4409C6.39345 48.0206 6.49458 47.6429 6.69683 47.3074C6.89543 46.9683 7.16389 46.6974 7.50223 46.4947C7.84056 46.2883 8.20832 46.1851 8.60549 46.1851C9.01738 46.1851 9.38697 46.2863 9.71427 46.4892C10.0453 46.6919 10.31 46.9646 10.5086 47.3074C10.7109 47.6466 10.812 48.0243 10.812 48.4409L10.8231 52.0293C10.8231 52.4421 10.7238 52.8198 10.5252 53.1628C10.3229 53.5093 10.0545 53.7856 9.71979 53.9921C9.38513 54.1986 9.0137 54.3018 8.60549 54.3018ZM8.60549 52.936C8.83351 52.936 9.03208 52.8439 9.20126 52.6595C9.37043 52.4716 9.45501 52.2614 9.45501 52.0293L9.44397 48.4409C9.44397 48.1903 9.36491 47.9782 9.20677 47.805C9.04864 47.6317 8.84821 47.5452 8.60549 47.5452C8.37381 47.5452 8.17522 47.6299 8.00973 47.7995C7.84424 47.969 7.76149 48.1829 7.76149 48.4409V52.0293C7.76149 52.2761 7.84424 52.49 8.00973 52.6707C8.17522 52.8475 8.37381 52.936 8.60549 52.936ZM14.0832 54.1911H12.7152C12.6821 54.1911 12.6637 54.1727 12.66 54.1358L11.0989 46.3564C11.0915 46.3269 11.1062 46.3122 11.143 46.3122H12.4228C12.4522 46.3122 12.4706 46.3269 12.478 46.3564L13.4047 51.5427L14.3094 46.3564C14.3167 46.3269 14.3351 46.3122 14.3646 46.3122H15.6278C15.6683 46.3122 15.683 46.3269 15.6719 46.3564L14.1384 54.1358C14.1347 54.1727 14.1163 54.1911 14.0832 54.1911ZM17.6689 54.1911H16.3891C16.3523 54.1911 16.3339 54.1727 16.3339 54.1358L16.3449 46.3564C16.3449 46.3269 16.3597 46.3122 16.3891 46.3122H17.6578C17.6872 46.3122 17.702 46.3269 17.702 46.3564L17.713 54.1358C17.713 54.1727 17.6983 54.1911 17.6689 54.1911ZM22.4019 54.1911H18.7501C18.7206 54.1911 18.7059 54.1727 18.7059 54.1358L18.717 46.3564C18.717 46.3269 18.7317 46.3122 18.7611 46.3122H22.3908C22.4203 46.3122 22.435 46.3306 22.435 46.3675V47.6337C22.435 47.6631 22.4203 47.6778 22.3908 47.6778H20.074V49.4472H22.3908C22.4203 49.4472 22.435 49.4619 22.435 49.4914L22.446 50.7742C22.446 50.8036 22.4313 50.8183 22.4019 50.8183H20.074V52.7978H22.4019C22.4313 52.7978 22.446 52.8163 22.446 52.8532V54.147C22.446 54.1764 22.4313 54.1911 22.4019 54.1911ZM25.8605 54.1911H24.5864C24.5533 54.1911 24.5366 54.1727 24.5366 54.1358V47.6778H23.0693C23.0326 47.6778 23.0142 47.6594 23.0142 47.6227L23.0252 46.3564C23.0252 46.3269 23.0399 46.3122 23.0693 46.3122H27.361C27.4015 46.3122 27.4217 46.3269 27.4217 46.3564V47.6227C27.4217 47.6594 27.407 47.6778 27.3776 47.6778H25.8936L25.9048 54.1358C25.9048 54.1727 25.8901 54.1911 25.8605 54.1911ZM29.3084 54.1911H28.0285C27.9917 54.1911 27.9733 54.1727 27.9733 54.1358L27.9845 46.3564C27.9845 46.3269 27.9992 46.3122 28.0285 46.3122H29.2972C29.3268 46.3122 29.3415 46.3269 29.3415 46.3564L29.3524 54.1358C29.3524 54.1727 29.3377 54.1911 29.3084 54.1911ZM32.425 54.3018C32.0169 54.3018 31.6436 54.1986 31.3053 53.9921C30.9706 53.7856 30.7039 53.5093 30.5054 53.1628C30.3105 52.8126 30.213 52.4237 30.213 51.9961L30.2241 48.463C30.2241 48.0428 30.3197 47.6631 30.5109 47.324C30.7022 46.9813 30.9651 46.7066 31.2998 46.5002C31.6381 46.29 32.0132 46.1851 32.425 46.1851C32.8443 46.1851 33.2176 46.2863 33.5449 46.4892C33.8758 46.6919 34.1389 46.9665 34.3336 47.3129C34.5323 47.6558 34.6316 48.039 34.6316 48.463V48.9828C34.6316 49.0122 34.6169 49.0269 34.5875 49.0269H33.3187C33.2893 49.0269 33.2746 49.0122 33.2746 48.9828V48.463C33.2746 48.2123 33.1937 47.9967 33.0319 47.8161C32.87 47.6354 32.6678 47.5452 32.425 47.5452C32.1566 47.5452 31.9507 47.6374 31.8072 47.8216C31.6637 48.0059 31.5921 48.2197 31.5921 48.463V51.9961C31.5921 52.2726 31.6729 52.4992 31.8348 52.6762C31.9967 52.8494 32.1934 52.936 32.425 52.936C32.6678 52.936 32.87 52.8402 33.0319 52.6485C33.1937 52.4531 33.2746 52.2357 33.2746 51.9961V51.4709C33.2746 51.4413 33.2893 51.4266 33.3187 51.4266H34.5985C34.6279 51.4266 34.6426 51.4413 34.6426 51.4709V51.9961C34.6426 52.42 34.5433 52.8071 34.3448 53.1571C34.1424 53.5036 33.8758 53.782 33.5449 53.9921C33.2139 54.1986 32.8406 54.3018 32.425 54.3018ZM36.7884 54.1911H35.5088C35.4792 54.1911 35.4645 54.1727 35.4645 54.1358L35.4866 46.3675C35.4866 46.3306 35.5013 46.3122 35.5307 46.3122H36.7996C36.8289 46.3122 36.8436 46.3306 36.8436 46.3675V49.0491L38.6144 46.3564C38.6438 46.3269 38.6714 46.3122 38.6972 46.3122H39.9935C40.0266 46.3122 40.0339 46.3269 40.0155 46.3564L38.0628 49.4804L40.2527 54.147C40.2711 54.1764 40.2527 54.1911 40.1975 54.1911H38.8184C38.7818 54.1911 38.7597 54.1764 38.7523 54.147L37.2243 50.8183L36.8327 51.4377V54.1358C36.8327 54.1727 36.818 54.1911 36.7884 54.1911ZM44.4562 54.1911H40.8044C40.775 54.1911 40.7603 54.1727 40.7603 54.1358L40.7713 46.3564C40.7713 46.3269 40.786 46.3122 40.8155 46.3122H44.4452C44.4746 46.3122 44.4893 46.3306 44.4893 46.3675V47.6337C44.4893 47.6631 44.4746 47.6778 44.4452 47.6778H42.1283V49.4472H44.4452C44.4746 49.4472 44.4893 49.4619 44.4893 49.4914L44.5004 50.7742C44.5004 50.8036 44.4856 50.8183 44.4562 50.8183H42.1283V52.7978H44.4562C44.4856 52.7978 44.5004 52.8163 44.5004 52.8532V54.147C44.5004 54.1764 44.4856 54.1911 44.4562 54.1911ZM47.915 54.1911H46.6406C46.6075 54.1911 46.5911 54.1727 46.5911 54.1358V47.6778H45.1237C45.0869 47.6778 45.0685 47.6594 45.0685 47.6227L45.0795 46.3564C45.0795 46.3269 45.0943 46.3122 45.1237 46.3122H49.4155C49.4558 46.3122 49.4761 46.3269 49.4761 46.3564V47.6227C49.4761 47.6594 49.4613 47.6778 49.4319 47.6778H47.9481L47.959 54.1358C47.959 54.1727 47.9444 54.1911 47.915 54.1911Z" fill="#969696"/>
<defs>
<filter id="filter0_i_1193_446" x="40.0237" y="19.6636" width="8.23215" height="10.4667" filterUnits="userSpaceOnUse" color-interpolation-filters="sRGB">
<feFlood flood-opacity="0" result="BackgroundImageFix"/>
<feBlend mode="normal" in="SourceGraphic" in2="BackgroundImageFix" result="shape"/>
<feColorMatrix in="SourceAlpha" type="matrix" values="0 0 0 0 0 0 0 0 0 0 0 0 0 0 0 0 0 0 127 0" result="hardAlpha"/>
<feOffset dy="-15"/>
<feGaussianBlur stdDeviation="2"/>
<feComposite in2="hardAlpha" operator="arithmetic" k2="-1" k3="1"/>
<feColorMatrix type="matrix" values="0 0 0 0 0 0 0 0 0 0 0 0 0 0 0 0 0 0 0.25 0"/>
<feBlend mode="normal" in2="shape" result="effect1_innerShadow_1193_446"/>
</filter>
<filter id="filter1_i_1193_446" x="40.2676" y="19.4583" width="4.39052" height="10.7368" filterUnits="userSpaceOnUse" color-interpolation-filters="sRGB">
<feFlood flood-opacity="0" result="BackgroundImageFix"/>
<feBlend mode="normal" in="SourceGraphic" in2="BackgroundImageFix" result="shape"/>
<feColorMatrix in="SourceAlpha" type="matrix" values="0 0 0 0 0 0 0 0 0 0 0 0 0 0 0 0 0 0 127 0" result="hardAlpha"/>
<feOffset dy="-15"/>
<feGaussianBlur stdDeviation="2"/>
<feComposite in2="hardAlpha" operator="arithmetic" k2="-1" k3="1"/>
<feColorMatrix type="matrix" values="0 0 0 0 0 0 0 0 0 0 0 0 0 0 0 0 0 0 0.25 0"/>
<feBlend mode="normal" in2="shape" result="effect1_innerShadow_1193_446"/>
</filter>
<filter id="filter2_i_1193_446" x="47.951" y="14.7332" width="3.04897" height="16.0859" filterUnits="userSpaceOnUse" color-interpolation-filters="sRGB">
<feFlood flood-opacity="0" result="BackgroundImageFix"/>
<feBlend mode="normal" in="SourceGraphic" in2="BackgroundImageFix" result="shape"/>
<feColorMatrix in="SourceAlpha" type="matrix" values="0 0 0 0 0 0 0 0 0 0 0 0 0 0 0 0 0 0 127 0" result="hardAlpha"/>
<feOffset dy="-15"/>
<feGaussianBlur stdDeviation="2"/>
<feComposite in2="hardAlpha" operator="arithmetic" k2="-1" k3="1"/>
<feColorMatrix type="matrix" values="0 0 0 0 0 0 0 0 0 0 0 0 0 0 0 0 0 0 0.25 0"/>
<feBlend mode="normal" in2="shape" result="effect1_innerShadow_1193_446"/>
</filter>
<filter id="filter3_i_1193_446" x="7.70454" y="16.6785" width="44.7583" height="25.3804" filterUnits="userSpaceOnUse" color-interpolation-filters="sRGB">
<feFlood flood-opacity="0" result="BackgroundImageFix"/>
<feBlend mode="normal" in="SourceGraphic" in2="BackgroundImageFix" result="shape"/>
<feColorMatrix in="SourceAlpha" type="matrix" values="0 0 0 0 0 0 0 0 0 0 0 0 0 0 0 0 0 0 127 0" result="hardAlpha"/>
<feOffset dx="20"/>
<feGaussianBlur stdDeviation="5"/>
<feComposite in2="hardAlpha" operator="arithmetic" k2="-1" k3="1"/>
<feColorMatrix type="matrix" values="0 0 0 0 0 0 0 0 0 0 0 0 0 0 0 0 0 0 0.14 0"/>
<feBlend mode="normal" in2="shape" result="effect1_innerShadow_1193_446"/>
</filter>
<filter id="filter4_i_1193_446" x="5.2776" y="22.0122" width="2.42696" height="6.76392" filterUnits="userSpaceOnUse" color-interpolation-filters="sRGB">
<feFlood flood-opacity="0" result="BackgroundImageFix"/>
<feBlend mode="normal" in="SourceGraphic" in2="BackgroundImageFix" result="shape"/>
<feColorMatrix in="SourceAlpha" type="matrix" values="0 0 0 0 0 0 0 0 0 0 0 0 0 0 0 0 0 0 127 0" result="hardAlpha"/>
<feOffset dy="6"/>
<feGaussianBlur stdDeviation="2"/>
<feComposite in2="hardAlpha" operator="arithmetic" k2="-1" k3="1"/>
<feColorMatrix type="matrix" values="0 0 0 0 0.756706 0 0 0 0 0.737 0 0 0 0 0.737 0 0 0 0.25 0"/>
<feBlend mode="normal" in2="shape" result="effect1_innerShadow_1193_446"/>
</filter>
<filter id="filter5_i_1193_446" x="2.94632" y="21.51" width="2.42696" height="3.84534" filterUnits="userSpaceOnUse" color-interpolation-filters="sRGB">
<feFlood flood-opacity="0" result="BackgroundImageFix"/>
<feBlend mode="normal" in="SourceGraphic" in2="BackgroundImageFix" result="shape"/>
<feColorMatrix in="SourceAlpha" type="matrix" values="0 0 0 0 0 0 0 0 0 0 0 0 0 0 0 0 0 0 127 0" result="hardAlpha"/>
<feOffset dy="-8"/>
<feGaussianBlur stdDeviation="2"/>
<feComposite in2="hardAlpha" operator="arithmetic" k2="-1" k3="1"/>
<feColorMatrix type="matrix" values="0 0 0 0 0 0 0 0 0 0 0 0 0 0 0 0 0 0 0.25 0"/>
<feBlend mode="normal" in2="shape" result="effect1_innerShadow_1193_446"/>
</filter>
<filter id="filter6_i_1193_446" x="16.2905" y="4.9436" width="9.24422" height="9.1969" filterUnits="userSpaceOnUse" color-interpolation-filters="sRGB">
<feFlood flood-opacity="0" result="BackgroundImageFix"/>
<feBlend mode="normal" in="SourceGraphic" in2="BackgroundImageFix" result="shape"/>
<feColorMatrix in="SourceAlpha" type="matrix" values="0 0 0 0 0 0 0 0 0 0 0 0 0 0 0 0 0 0 127 0" result="hardAlpha"/>
<feOffset dx="6" dy="-5"/>
<feGaussianBlur stdDeviation="2"/>
<feComposite in2="hardAlpha" operator="arithmetic" k2="-1" k3="1"/>
<feColorMatrix type="matrix" values="0 0 0 0 0 0 0 0 0 0 0 0 0 0 0 0 0 0 0.25 0"/>
<feBlend mode="normal" in2="shape" result="effect1_innerShadow_1193_446"/>
</filter>
<filter id="filter7_i_1193_446" x="28.9742" y="4.9436" width="9.24422" height="9.1969" filterUnits="userSpaceOnUse" color-interpolation-filters="sRGB">
<feFlood flood-opacity="0" result="BackgroundImageFix"/>
<feBlend mode="normal" in="SourceGraphic" in2="BackgroundImageFix" result="shape"/>
<feColorMatrix in="SourceAlpha" type="matrix" values="0 0 0 0 0 0 0 0 0 0 0 0 0 0 0 0 0 0 127 0" result="hardAlpha"/>
<feOffset dx="6" dy="-5"/>
<feGaussianBlur stdDeviation="2"/>
<feComposite in2="hardAlpha" operator="arithmetic" k2="-1" k3="1"/>
<feColorMatrix type="matrix" values="0 0 0 0 0 0 0 0 0 0 0 0 0 0 0 0 0 0 0.25 0"/>
<feBlend mode="normal" in2="shape" result="effect1_innerShadow_1193_446"/>
</filter>
</defs>
</svg>
