<svg width="26" height="24" viewBox="0 0 26 24" fill="none" xmlns="http://www.w3.org/2000/svg">
<path d="M24.4976 3.63986C24.368 3.12216 24.1041 2.64781 23.7325 2.26474C23.3609 1.88167 22.8949 1.60344 22.3813 1.45816C20.5051 1 13 1 13 1C13 1 5.49494 1 3.61867 1.50179C3.10515 1.64708 2.63906 1.92531 2.26748 2.30838C1.8959 2.69145 1.632 3.16579 1.50242 3.6835C1.15903 5.58764 0.991063 7.51927 1.00062 9.45411C0.988383 11.4035 1.15636 13.3499 1.50242 15.2684C1.64527 15.77 1.91509 16.2263 2.2858 16.5932C2.65652 16.9601 3.11559 17.2251 3.61867 17.3628C5.49494 17.8646 13 17.8646 13 17.8646C13 17.8646 20.5051 17.8646 22.3813 17.3628C22.8949 17.2175 23.3609 16.9393 23.7325 16.5562C24.1041 16.1731 24.368 15.6988 24.4976 15.1811C24.8383 13.2913 25.0063 11.3744 24.9994 9.45411C25.0116 7.5047 24.8436 5.55834 24.4976 3.63986Z" stroke="black" stroke-width="2" stroke-linecap="round" stroke-linejoin="round"/>
<path d="M10.963 11.3966C10.963 12.1635 11.7907 12.645 12.4573 12.2659L15.7069 10.4179C16.3811 10.0344 16.3811 9.06275 15.7069 8.67933L12.4573 6.83133C11.7907 6.45222 10.963 6.93369 10.963 7.7006V11.3966Z" fill="black"/>
<path d="M0 21C0 20.4477 0.447715 20 1 20H7C7.55228 20 8 20.4477 8 21V24H0V21Z" fill="black"/>
<path d="M9 21C9 20.4477 9.44772 20 10 20H16C16.5523 20 17 20.4477 17 21V24H9V21Z" fill="black"/>
<path d="M18 21C18 20.4477 18.4477 20 19 20H25C25.5523 20 26 20.4477 26 21V24H18V21Z" fill="black"/>
</svg>
