<svg width="20" height="20" viewBox="0 0 20 20" fill="none" xmlns="http://www.w3.org/2000/svg">
<path fill-rule="evenodd" clip-rule="evenodd" d="M19.2442 9.57791C19.6612 9.57791 20.0002 9.23891 20.0002 8.82191V6.25291C20.0002 2.39191 17.5902 -9.15527e-05 13.7532 -9.15527e-05H6.25318C2.39218 -9.15527e-05 0.000183105 2.39191 0.000183105 6.25591V13.7559C0.000183105 17.6079 2.39218 19.9999 6.25318 19.9999H13.7562C17.6082 19.9999 20.0002 17.6079 19.9972 13.7529C19.9972 13.3309 19.6542 12.9879 19.2322 12.9879C18.8092 12.9879 18.4672 13.3309 18.4672 13.7529C18.4672 16.7869 16.7962 18.4669 13.7532 18.4669H6.25318C3.21018 18.4669 1.53018 16.7869 1.53018 13.7529V6.25291C1.53018 3.20991 3.21018 1.52991 6.25618 1.52991H13.7562C16.8002 1.52991 18.4702 3.19991 18.4702 6.25291V8.79491V8.79691C18.4712 9.21891 18.8132 9.55991 19.2352 9.55991V9.57791H19.2442ZM7.81498 11.1453L7.13098 11.8293C6.82598 12.1193 6.80898 12.6003 7.09298 12.9113L7.11498 12.9273C7.40698 13.2193 7.87698 13.2273 8.17798 12.9453L8.85898 12.2643C9.16798 11.9763 9.18498 11.4923 8.89698 11.1823C8.60798 10.8743 8.12398 10.8563 7.81498 11.1453ZM13.1428 12.8032C12.8488 13.0962 12.3738 13.1022 12.0728 12.8152L12.0348 12.7782L7.25478 7.99921C6.96278 7.68921 6.95678 7.20721 7.24178 6.89121C7.53378 6.59221 8.01178 6.58621 8.31078 6.87821C8.31378 6.88021 8.31578 6.88221 8.31878 6.88521L10.1838 8.75121L11.8808 7.05321C12.1858 6.76221 12.6668 6.76521 12.9688 7.06021C13.0228 7.11421 13.0688 7.17521 13.1038 7.24321C13.2768 7.54421 13.2268 7.92221 12.9818 8.16821L11.2918 9.85721L13.1298 11.6962C13.4398 11.9892 13.4518 12.4782 13.1578 12.7872C13.1555 12.7906 13.1526 12.7934 13.1496 12.7962C13.1473 12.7984 13.1449 12.8006 13.1428 12.8032Z" fill="black"/>
</svg>
