<svg width="170" height="170" viewBox="0 0 170 170" fill="none" xmlns="http://www.w3.org/2000/svg">
<path d="M74.7309 125C73.8248 124.997 72.929 124.807 72.0991 124.441C71.2692 124.076 70.523 123.542 69.9069 122.874L37.7912 88.5333C36.5907 87.2473 35.9476 85.5345 36.0033 83.7719C36.0591 82.0092 36.8092 80.341 38.0886 79.1343C39.368 77.9275 41.0719 77.2811 42.8255 77.3372C44.579 77.3932 46.2386 78.1472 47.4391 79.4332L74.6648 108.593L130.239 47.4833C130.803 46.7774 131.505 46.1948 132.301 45.7713C133.097 45.3478 133.971 45.0925 134.869 45.0208C135.767 44.9492 136.67 45.0628 137.523 45.3547C138.375 45.6467 139.159 46.1107 139.827 46.7184C140.495 47.3261 141.032 48.0645 141.405 48.8884C141.779 49.7124 141.981 50.6043 141.999 51.5095C142.017 52.4147 141.85 53.3141 141.51 54.1523C141.17 54.9906 140.662 55.7501 140.019 56.3841L79.6209 122.808C79.0106 123.488 78.267 124.034 77.4368 124.411C76.6067 124.788 75.7079 124.989 74.7969 125H74.7309Z" fill="#3461FD"/>
<circle cx="85" cy="85" r="80" stroke="#3461FD" stroke-width="10"/>
</svg>
