<svg width="28" height="27" viewBox="0 0 28 27" fill="none" xmlns="http://www.w3.org/2000/svg">
<g filter="url(#filter0_i_1245_4591)">
<path d="M23.8827 8H4.11734C2.48104 8 1 9.23354 1 10.9376V23.0624C1 24.7665 2.48104 26 4.11734 26H23.8827C25.519 26 27 24.7665 27 23.0624V10.9376C27 9.23354 25.519 8 23.8827 8Z" stroke="black" stroke-width="2"/>
</g>
<path d="M8.78 16.2C9.51203 16.2 10.1055 15.4837 10.1055 14.6C10.1055 13.7163 9.51203 13 8.78 13C8.04797 13 7.45454 13.7163 7.45454 14.6C7.45454 15.4837 8.04797 16.2 8.78 16.2Z" fill="black"/>
<path d="M21.0145 14.6C21.0145 15.4838 20.4211 16.2 19.6892 16.2C18.9571 16.2 18.3636 15.4838 18.3636 14.6C18.3636 13.7164 18.9571 13 19.6892 13C20.4211 13 21.0145 13.7164 21.0145 14.6Z" fill="black"/>
<path d="M16.2769 19.1621C16.3812 19.2572 16.4177 19.3973 16.3893 19.5282C16.2349 20.2409 15.2764 20.7898 14.1171 20.7898C12.9184 20.7898 11.8525 20.1876 11.8186 19.4528C11.8147 19.3688 11.8405 19.2845 11.8903 19.2132C12.3028 18.6221 12.9171 19.4476 14.1171 19.4476C15.2636 19.4476 15.838 18.7624 16.2769 19.1621Z" fill="black"/>
<path d="M21.6353 3.45763C21.6353 4.7042 20.4527 5.91526 18.731 5.91526C17.0094 5.91526 15.8267 4.70421 15.8267 3.45763C15.8267 2.21106 17.0094 1 18.731 1C20.4527 1 21.6353 2.21106 21.6353 3.45763Z" stroke="black" stroke-width="2"/>
<path d="M21.6353 3.45763C21.6353 4.7042 20.4527 5.91526 18.731 5.91526C17.0094 5.91526 15.8267 4.70421 15.8267 3.45763C15.8267 2.21106 17.0094 1 18.731 1C20.4527 1 21.6353 2.21106 21.6353 3.45763Z" stroke="black" stroke-opacity="0.2" stroke-width="2"/>
<path d="M12.0814 3.45763C12.0814 4.7042 10.8987 5.91526 9.17704 5.91526C7.45537 5.91526 6.27273 4.7042 6.27273 3.45763C6.27273 2.21106 7.45537 1 9.17704 1C10.8987 1 12.0814 2.21106 12.0814 3.45763Z" stroke="black" stroke-width="2"/>
<path d="M17.6207 5H10.0304C9.11392 5 8.37101 5.44771 8.37101 6V6C8.37101 6.55229 9.11392 7 10.0304 7H17.6207C18.5372 7 19.2801 6.55229 19.2801 6C19.2801 5.44771 18.5372 5 17.6207 5Z" fill="black"/>
<defs>
<filter id="filter0_i_1245_4591" x="0" y="7" width="38" height="20" filterUnits="userSpaceOnUse" color-interpolation-filters="sRGB">
<feFlood flood-opacity="0" result="BackgroundImageFix"/>
<feBlend mode="normal" in="SourceGraphic" in2="BackgroundImageFix" result="shape"/>
<feColorMatrix in="SourceAlpha" type="matrix" values="0 0 0 0 0 0 0 0 0 0 0 0 0 0 0 0 0 0 127 0" result="hardAlpha"/>
<feOffset dx="20"/>
<feGaussianBlur stdDeviation="5"/>
<feComposite in2="hardAlpha" operator="arithmetic" k2="-1" k3="1"/>
<feColorMatrix type="matrix" values="0 0 0 0 0 0 0 0 0 0 0 0 0 0 0 0 0 0 0.14 0"/>
<feBlend mode="normal" in2="shape" result="effect1_innerShadow_1245_4591"/>
</filter>
</defs>
</svg>
