<svg width="20" height="24" viewBox="0 0 20 24" fill="none" xmlns="http://www.w3.org/2000/svg">
<path fill-rule="evenodd" clip-rule="evenodd" d="M13.8244 7.35397C13.8244 5.19398 12.0737 3.43699 9.92144 3.43699C7.7692 3.43699 6.01851 5.19398 6.01851 7.35397C6.01851 9.51396 7.7692 11.271 9.92144 11.271C12.0737 11.271 13.8244 9.51396 13.8244 7.35397ZM15.2552 7.35397C15.2552 10.306 12.8628 12.7079 9.92144 12.7079C6.98005 12.7079 4.58767 10.306 4.58767 7.35397C4.58767 4.40199 6.98005 2 9.92144 2C12.8628 2 15.2552 4.40199 15.2552 7.35397ZM2 18.31C2 15.02 6.5207 14.64 9.92144 14.64C11.8804 14.64 17.8429 14.64 17.8429 18.33C17.8429 21.619 13.3222 22 9.92144 22C9.57868 22 9.2409 21.995 8.90909 21.987C8.51452 21.975 8.20364 21.644 8.21559 21.247C8.22655 20.851 8.56832 20.553 8.95094 20.55C9.2688 20.56 9.59263 20.564 9.92144 20.564C14.2279 20.564 16.412 19.813 16.412 18.33C16.412 16.834 14.2279 16.076 9.92144 16.076C5.61497 16.076 3.43084 16.828 3.43084 18.31C3.43084 18.795 3.60222 19.498 5.08986 20.004C5.46451 20.131 5.66479 20.539 5.53824 20.914C5.4107 21.288 5.00616 21.494 4.63052 21.364C2.45635 20.625 2 19.295 2 18.31Z" fill="black"/>
</svg>
