<svg width="20" height="21" viewBox="0 0 20 21" fill="none" xmlns="http://www.w3.org/2000/svg">
<path fill-rule="evenodd" clip-rule="evenodd" d="M3.44798 19.1296C4.15562 19.6446 5.06216 19.6086 6.27653 19.0556C6.65334 18.8846 7.09711 19.0506 7.26903 19.4276C7.43994 19.8056 7.27502 20.2487 6.89722 20.4207C5.1711 21.2077 3.72984 21.1927 2.61741 20.3767C2.10867 20.0726 -0.103195 18.1616 0.00375015 16.5206C0.0467281 16.0045 0.286605 15.5325 0.718384 15.0895C1.17915 14.6175 3.58991 12.6355 4.35252 12.4765C5.17238 12.3056 5.81265 12.6738 6.28031 12.9428L6.28153 12.9435C6.7423 13.2085 6.9392 13.3005 7.18807 13.2095C8.82423 12.5405 10.1615 11.5064 11.133 10.1454C11.3749 9.80839 11.8427 9.73138 12.1795 9.97239C12.3834 10.1184 12.4933 10.3484 12.4933 10.5824C12.4933 10.7344 12.4474 10.8864 12.3534 11.0184C11.213 12.6125 9.6568 13.8205 7.72679 14.6095C6.77228 14.9565 6.05665 14.5445 5.53392 14.2435C5.14212 14.0175 4.90824 13.8925 4.65836 13.9455C4.29755 14.0855 2.36754 15.5475 1.79283 16.1375C1.61392 16.3196 1.50898 16.4906 1.49898 16.6176C1.48199 17.3336 2.89727 18.7976 3.44798 19.1296ZM11.0193 5.33419C11.1782 4.56817 13.1592 2.15911 13.6299 1.69809C14.0737 1.26408 14.5465 1.02408 15.0332 0.983076C16.8753 0.918074 18.8003 3.38514 18.9622 3.66814C19.35 4.20616 19.5459 4.83717 19.5459 5.54719C19.5459 6.25321 19.352 7.03723 18.9562 7.88625C17.6009 11.1513 13.2062 16.0895 9.17323 18.8675C8.8324 19.1025 8.36564 19.0165 8.13076 18.6755C7.89888 18.3335 7.98284 17.8665 8.32366 17.6325C12.0907 15.0374 16.3316 10.2973 17.5849 7.28124C18.1516 6.0612 18.1866 5.15318 17.7019 4.47717C17.383 3.95015 15.8958 2.45311 15.1222 2.48011C15.0312 2.48911 14.8603 2.59312 14.6794 2.77012C14.0897 3.34613 12.6275 5.27918 12.4755 5.6832C12.4076 6.0022 12.6015 6.33421 12.9203 6.84023L13.0792 7.09623C13.2921 7.45124 13.1792 7.91225 12.8234 8.12626C12.4695 8.33926 12.0088 8.22526 11.7949 7.87025L11.652 7.63925C11.2991 7.07923 10.8174 6.30621 11.0193 5.33419Z" fill="black"/>
</svg>
