<svg width="24" height="24" viewBox="0 0 24 24" fill="none" xmlns="http://www.w3.org/2000/svg">
<path fill-rule="evenodd" clip-rule="evenodd" d="M2.0001 11.9998C2.0001 6.4848 6.4861 1.9998 12.0001 1.9998C17.5141 1.9998 22.0001 6.4848 22.0001 11.9998C22.0001 17.5138 17.5141 21.9998 12.0001 21.9998C10.6051 21.9998 9.2551 21.7188 7.9871 21.1618C7.6211 21.0018 7.4551 20.5748 7.6151 20.2088C7.7751 19.8408 8.2011 19.6758 8.5691 19.8368C9.6521 20.3118 10.8061 20.5528 12.0001 20.5528C16.7151 20.5528 20.5521 16.7148 20.5521 11.9998C20.5521 7.2838 16.7151 3.4478 12.0001 3.4478C7.2841 3.4478 3.4481 7.2838 3.4481 11.9998C3.4481 13.8468 4.0261 15.6038 5.1221 17.0838C5.3591 17.4048 5.2921 17.8578 4.9711 18.0958C4.6491 18.3348 4.1961 18.2688 3.9581 17.9448C2.6771 16.2158 2.0001 14.1598 2.0001 11.9998ZM10.8199 15.9692H10.8559C11.1489 15.9622 11.7549 15.7102 11.7609 15.7072C12.7789 15.2782 14.7939 13.9542 15.6079 13.0782L15.6569 13.0262C15.7569 12.9202 15.9059 12.7552 15.9409 12.7082C16.0909 12.5012 16.1709 12.2552 16.1709 12.0002C16.1709 11.7312 16.0799 11.4662 15.9129 11.2532C15.8859 11.2192 15.7699 11.0932 15.6759 10.9942L15.5969 10.9092C14.8049 10.0642 12.7429 8.6732 11.6599 8.2532C11.4949 8.1882 11.0869 8.0362 10.8639 8.0302C10.6519 8.0272 10.4469 8.0722 10.2509 8.1752C10.0079 8.3072 9.81595 8.5192 9.71395 8.7662C9.63895 8.9422 9.53895 9.4652 9.53795 9.4732C9.43295 10.0522 9.37295 10.9732 9.37495 11.9992C9.37295 12.9692 9.42695 13.8582 9.52195 14.4362C9.52295 14.4422 9.63595 15.0892 9.75395 15.3182C9.95995 15.7162 10.3779 15.9692 10.8199 15.9692ZM10.9619 9.7332C10.9699 9.6872 10.9839 9.6192 10.9989 9.5502C11.0529 9.5702 11.1009 9.5882 11.1319 9.6002C11.9989 9.9372 13.9099 11.2252 14.5369 11.8962L14.6209 11.9852C14.6228 11.9871 14.6246 11.989 14.6263 11.9908C14.6268 11.9915 14.6274 11.9921 14.6279 11.9927C14.6291 11.994 14.6303 11.9953 14.6315 11.9966C14.6326 11.9978 14.6337 11.999 14.6349 12.0002C14.6239 12.0102 14.6139 12.0212 14.6049 12.0312C14.6039 12.0332 14.5519 12.0922 14.5469 12.0912C13.9399 12.7472 12.1259 13.9822 11.1999 14.3722C11.1761 14.3819 11.1454 14.3938 11.1118 14.4068L11.1117 14.4068C11.0764 14.4205 11.0379 14.4353 11.0009 14.4502C10.9799 14.3582 10.9609 14.2632 10.9509 14.2012C10.8689 13.7062 10.8209 12.8822 10.8219 11.9992C10.8209 11.0832 10.8749 10.2142 10.9619 9.7332Z" fill="black"/>
</svg>
