<svg width="20" height="20" viewBox="0 0 20 20" fill="none" xmlns="http://www.w3.org/2000/svg">
<path d="M15.4979 19.9194C15.3749 19.9224 15.2529 19.8914 15.1459 19.8294L10.0079 17.1234L5.4839 19.5594C4.7459 19.9594 3.8219 19.6854 3.4219 18.9464C3.4169 18.9374 3.4119 18.9284 3.4069 18.9184C3.2499 18.6094 3.1949 18.2604 3.2489 17.9184L4.1289 12.7244L0.450903 9.00038C-0.150097 8.38038 -0.150097 7.39438 0.450903 6.77338C0.684903 6.52738 0.994903 6.36838 1.3309 6.32238L6.3739 5.55638L8.6169 0.883378C8.9659 0.123378 9.8649 -0.210622 10.6259 0.138378C10.9559 0.289378 11.2199 0.554378 11.3709 0.883378L13.6239 5.57238L18.6839 6.34738C19.0929 6.40838 19.4599 6.63438 19.6999 6.97138C20.1479 7.61538 20.0799 8.48538 19.5379 9.05238L15.8769 12.7324L16.3869 15.5314C16.4579 15.9514 16.1809 16.3524 15.7619 16.4314C15.3499 16.5054 14.9559 16.2314 14.8819 15.8184L14.3629 13.0194C14.2759 12.5064 14.4389 11.9824 14.8029 11.6114L18.4729 7.90538L13.4129 7.12038C12.8999 7.03738 12.4649 6.69738 12.2599 6.22038L10.0079 1.55138L7.7279 6.29438C7.5229 6.77238 7.0879 7.11138 6.5749 7.19438L1.5319 7.96038L5.1749 11.6604C5.5379 12.0254 5.7009 12.5424 5.6149 13.0494L4.7349 18.2434L9.2579 15.8174C9.7059 15.5654 10.2529 15.5654 10.7009 15.8174L15.8319 18.5234C16.1449 18.6944 16.3039 19.0554 16.2189 19.4024C16.1409 19.7494 15.8349 19.9964 15.4799 20.0024L15.4979 19.9194Z" fill="#EED659"/>
</svg>
