<svg width="20" height="18" viewBox="0 0 20 18" fill="none" xmlns="http://www.w3.org/2000/svg">
<path fill-rule="evenodd" clip-rule="evenodd" d="M10.395 18H15.858C18.142 18 20 16.159 20 13.8949V11.2195C20 10.8093 19.664 10.4764 19.25 10.4764C18.429 10.4764 17.761 9.81449 17.761 9.00099C17.761 8.18749 18.429 7.5256 19.25 7.5256C19.449 7.5256 19.64 7.44732 19.78 7.30761C19.921 7.1679 20 6.97864 20 6.78245L19.999 4.10514C19.999 1.84102 18.14 0 15.856 0H4.144C1.86 0 0.002 1.84102 0.002 4.10514L0 6.86866C0 7.06485 0.079 7.2541 0.22 7.39381C0.36 7.53352 0.551 7.6118 0.75 7.6118C1.599 7.6118 2.239 8.2083 2.239 9.00099C2.239 9.81449 1.571 10.4764 0.75 10.4764C0.336 10.4764 0 10.8093 0 11.2195V13.8949C0 16.159 1.858 18 4.143 18H5.933C6.347 18 6.683 17.6671 6.683 17.2569C6.683 16.8466 6.347 16.5137 5.933 16.5137H4.143C2.686 16.5137 1.5 15.3385 1.5 13.8949V11.8685C2.787 11.5386 3.739 10.3783 3.739 9.00099C3.739 7.63856 2.802 6.52582 1.501 6.21271L1.502 4.10514C1.502 2.66146 2.687 1.48629 4.144 1.48629H15.856C17.313 1.48629 18.499 2.66146 18.499 4.10514L18.5 6.13344C17.213 6.46339 16.261 7.62369 16.261 9.00099C16.261 10.3783 17.214 11.5386 18.5 11.8685V13.8949C18.5 15.3385 17.315 16.5137 15.858 16.5137H10.395C9.981 16.5137 9.645 16.8466 9.645 17.2569C9.645 17.6671 9.981 18 10.395 18ZM13.7894 7.92742C13.9281 8.07334 14.0019 8.26586 14 8.46954C13.997 8.67321 13.9183 8.86371 13.7756 9.00557L12.6085 10.178L12.884 11.8317C12.947 12.2086 12.7994 12.5835 12.4983 12.8075C12.1962 13.0324 11.8065 13.0598 11.4768 12.8825L10.0342 12.1042L8.59159 12.8835C8.45284 12.9605 8.29638 13 8.13991 13C7.93523 13 7.73842 12.9331 7.57113 12.8075C7.27099 12.5835 7.1224 12.2086 7.18538 11.8317L7.4619 10.178L6.29382 9.00557C6.02714 8.73908 5.93366 8.34693 6.04781 7.98214C6.16393 7.61837 6.46406 7.35795 6.8321 7.30424L8.44398 7.06206L9.16628 5.5563C9.32963 5.21381 9.66224 5.00101 10.0332 5C10.4062 5 10.7388 5.21178 10.9041 5.55428L11.6914 7.10057C11.8813 7.47549 11.7416 7.93756 11.3784 8.13211C11.2043 8.22736 11.0035 8.24459 10.8156 8.18581C10.6256 8.12502 10.4711 7.99227 10.3786 7.81191L10.048 7.16339L9.60025 8.09766C9.492 8.32261 9.28437 8.47967 9.04229 8.51514L8.07398 8.66004L8.77463 9.36529C8.94979 9.53958 9.0295 9.79189 8.98817 10.0402L8.82284 11.0342L9.69078 10.565C9.90727 10.4485 10.1651 10.4485 10.3796 10.565L11.2476 11.0342L11.0822 10.0402C11.0409 9.79189 11.1206 9.53958 11.2948 9.36428L12.7414 7.91324C12.8821 7.7734 13.072 7.6822 13.2649 7.69639C13.4637 7.69842 13.6496 7.77948 13.7894 7.92742Z" fill="black"/>
</svg>
