<svg width="668" height="668" viewBox="0 0 668 668" fill="none" xmlns="http://www.w3.org/2000/svg">
<g clip-path="url(#clip0_1493_4313)">
<path d="M414.933 70.4945C414.887 70.7825 414.239 71.314 413.451 71.6324C412.709 71.9321 412.181 72.361 412.294 72.6392C412.388 72.871 411.878 73.3463 411.09 73.6647C410.349 73.9644 409.775 74.412 409.887 74.6902C409.981 74.922 409.472 75.3973 408.683 75.7157C407.942 76.0154 407.368 76.463 407.48 76.7412C407.574 76.973 407.065 77.4483 406.277 77.7667C405.535 78.0664 404.961 78.514 405.073 78.7922C405.167 79.024 404.658 79.4993 403.87 79.8177C403.128 80.1174 402.554 80.565 402.666 80.8432C402.76 81.075 402.343 81.5128 401.741 81.7563C401.092 82.0185 400.518 82.4662 400.491 82.8006C400.446 83.0885 399.983 83.5451 399.473 83.7511C399.009 83.9384 398.222 84.5261 397.751 85.0941C395.975 87.1058 395.633 87.4598 394.752 87.8157C394.242 88.0217 393.76 88.4319 393.734 88.7663C393.688 89.0542 393.133 89.5483 392.484 89.8105C391.881 90.054 391.446 90.4455 391.559 90.7236C391.652 90.9554 391.143 91.4307 390.355 91.7491C389.613 92.0488 389.039 92.4965 389.152 92.7746C389.245 93.0064 388.736 93.4817 387.948 93.8001C387.206 94.0998 386.632 94.5475 386.745 94.8256C386.838 95.0574 386.329 95.5327 385.541 95.8511C384.799 96.1508 384.225 96.5985 384.338 96.8766C384.431 97.1084 383.922 97.5837 383.134 97.9021C382.392 98.2018 381.818 98.6495 381.931 98.9276C382.024 99.1594 381.515 99.6347 380.727 99.9531C379.986 100.253 379.411 100.7 379.524 100.979C379.617 101.21 379.201 101.648 378.599 101.892C377.949 102.154 377.375 102.602 377.349 102.936C377.303 103.224 376.841 103.681 376.331 103.887C375.867 104.074 375.107 104.596 374.71 105.081C374.294 105.518 373.628 106.273 373.23 106.757C372.814 107.195 372.073 107.764 371.609 107.951C371.1 108.157 370.618 108.567 370.591 108.902C370.546 109.19 369.991 109.684 369.342 109.946C368.739 110.189 368.304 110.581 368.416 110.859C368.51 111.091 368.001 111.566 367.213 111.885C366.471 112.184 365.897 112.632 366.009 112.91C366.103 113.142 365.594 113.617 364.806 113.936C364.064 114.235 363.49 114.683 363.602 114.961C363.696 115.193 363.187 115.668 362.399 115.987C361.657 116.286 361.083 116.734 361.195 117.012C361.289 117.244 360.78 117.719 359.992 118.038C359.25 118.337 358.676 118.785 358.788 119.063C358.882 119.295 358.466 119.733 357.863 119.976C357.214 120.238 356.64 120.686 356.613 121.02C356.568 121.308 356.105 121.765 355.595 121.971C355.132 122.158 354.372 122.681 353.975 123.165C353.558 123.603 352.892 124.357 352.495 124.841C352.079 125.279 351.338 125.848 350.874 126.036C350.364 126.242 349.883 126.652 349.856 126.986C349.811 127.274 349.255 127.768 348.606 128.03C348.004 128.274 347.569 128.665 347.681 128.943C347.775 129.175 347.266 129.651 346.477 129.969C345.736 130.269 345.162 130.716 345.274 130.994C345.368 131.226 344.859 131.702 344.071 132.02C343.329 132.32 342.755 132.767 342.867 133.045C342.961 133.277 342.452 133.753 341.664 134.071C340.922 134.371 340.348 134.818 340.46 135.096C340.554 135.328 340.045 135.804 339.257 136.122C338.515 136.422 337.941 136.869 338.053 137.147C338.147 137.379 337.638 137.855 336.85 138.173C336.108 138.473 335.534 138.92 335.646 139.198C335.74 139.43 335.324 139.868 334.721 140.112C334.072 140.374 333.498 140.821 333.471 141.156C333.426 141.444 332.963 141.9 332.453 142.106C331.572 142.462 331.23 142.816 329.454 144.828C328.983 145.396 328.195 145.984 327.732 146.171C327.222 146.377 326.741 146.787 326.714 147.122C326.668 147.41 326.113 147.904 325.464 148.166C324.861 148.409 324.426 148.801 324.539 149.079C324.632 149.311 324.123 149.786 323.335 150.104C322.593 150.404 322.019 150.852 322.132 151.13C322.225 151.362 321.716 151.837 320.928 152.155C320.187 152.455 319.612 152.903 319.725 153.181C319.818 153.413 319.309 153.888 318.521 154.206C317.78 154.506 317.205 154.954 317.318 155.232C317.412 155.464 316.903 155.939 316.114 156.257C315.373 156.557 314.799 157.005 314.911 157.283C315.005 157.515 314.496 157.99 313.707 158.308C312.966 158.608 312.392 159.056 312.504 159.334C312.598 159.566 312.181 160.004 311.579 160.247C310.93 160.509 310.356 160.957 310.329 161.291C310.283 161.579 309.821 162.036 309.311 162.242C308.847 162.429 308.06 163.017 307.588 163.585C305.813 165.597 305.47 165.951 304.59 166.306C304.08 166.512 303.598 166.923 303.572 167.257C303.526 167.545 302.971 168.039 302.322 168.301C301.719 168.545 301.284 168.936 301.396 169.214C301.49 169.446 300.981 169.921 300.193 170.24C299.451 170.54 298.877 170.987 298.989 171.265C299.083 171.497 298.574 171.972 297.786 172.291C297.044 172.591 296.47 173.038 296.583 173.316C296.676 173.548 296.167 174.023 295.379 174.342C294.637 174.642 294.063 175.089 294.176 175.367C294.269 175.599 293.76 176.074 292.972 176.393C292.23 176.693 291.656 177.14 291.769 177.418C291.862 177.65 291.353 178.125 290.565 178.444C289.823 178.744 289.249 179.191 289.362 179.469C289.455 179.701 289.039 180.139 288.436 180.382C287.787 180.645 287.213 181.092 287.187 181.427C287.141 181.715 286.678 182.171 286.169 182.377C285.705 182.565 284.964 183.134 284.548 183.571C284.15 184.056 283.484 184.81 283.068 185.248C282.67 185.732 281.911 186.255 281.447 186.442C280.937 186.648 280.456 187.058 280.429 187.392C280.384 187.68 279.829 188.174 279.179 188.437C278.577 188.68 278.142 189.072 278.254 189.35C278.348 189.582 277.839 190.057 277.051 190.375C276.309 190.675 275.735 191.123 275.847 191.401C275.941 191.633 275.432 192.108 274.644 192.426C273.902 192.726 273.328 193.174 273.44 193.452C273.534 193.684 273.025 194.159 272.237 194.477C271.495 194.777 270.921 195.225 271.033 195.503C271.127 195.735 270.618 196.21 269.83 196.528C269.088 196.828 268.514 197.276 268.626 197.554C268.72 197.786 268.211 198.261 267.423 198.579C266.681 198.879 266.107 199.327 266.219 199.605C266.313 199.837 265.897 200.274 265.294 200.518C264.645 200.78 264.071 201.228 264.044 201.562C263.999 201.85 263.536 202.307 263.026 202.513C262.563 202.7 261.803 203.223 261.406 203.707C260.989 204.145 260.323 204.899 259.926 205.383C259.509 205.821 258.769 206.39 258.305 206.577C257.795 206.783 257.314 207.193 257.287 207.528C257.242 207.816 256.686 208.31 256.037 208.572C255.435 208.816 255 209.207 255.112 209.485C255.206 209.717 254.697 210.192 253.908 210.511C253.167 210.81 252.593 211.258 252.705 211.536C252.799 211.768 252.29 212.243 251.501 212.562C250.76 212.861 250.186 213.309 250.298 213.587C250.392 213.819 249.883 214.294 249.095 214.613C248.353 214.912 247.779 215.36 247.891 215.638C247.985 215.87 247.476 216.345 246.688 216.664C245.946 216.963 245.372 217.411 245.484 217.689C245.578 217.921 245.161 218.359 244.559 218.602C243.91 218.865 243.336 219.312 243.309 219.647C243.264 219.935 242.801 220.391 242.291 220.597C241.827 220.784 241.068 221.307 240.67 221.791C240.254 222.229 239.588 222.983 239.19 223.468C238.774 223.905 238.033 224.474 237.57 224.662C237.06 224.868 236.578 225.278 236.552 225.612C236.506 225.9 235.951 226.394 235.302 226.656C234.699 226.9 234.264 227.291 234.377 227.57C234.47 227.801 233.961 228.277 233.173 228.595C232.431 228.895 231.857 229.342 231.97 229.621C232.063 229.852 231.554 230.328 230.766 230.646C230.024 230.946 229.45 231.393 229.563 231.672C229.656 231.903 229.147 232.379 228.359 232.697C227.617 232.997 227.043 233.444 227.156 233.723C227.249 233.954 226.74 234.43 225.952 234.748C225.211 235.048 224.636 235.495 224.749 235.774C224.842 236.005 224.333 236.481 223.545 236.799C222.804 237.099 222.229 237.546 222.342 237.825C222.436 238.056 222.019 238.494 221.417 238.738C220.768 239 220.193 239.448 220.167 239.782C220.121 240.07 219.566 240.564 218.963 240.807C218.361 241.051 217.786 241.499 217.76 241.833C217.714 242.121 217.252 242.578 216.742 242.784C216.278 242.971 215.519 243.493 215.121 243.978C214.705 244.415 214.039 245.17 213.641 245.654C213.225 246.092 212.484 246.661 211.974 246.867C211.464 247.073 211.122 247.427 211.234 247.705C211.328 247.937 210.819 248.412 210.031 248.731C209.289 249.03 208.715 249.478 208.827 249.756C208.921 249.988 208.412 250.463 207.624 250.782C206.882 251.081 206.308 251.529 206.42 251.807C206.514 252.039 206.005 252.514 205.217 252.833C204.475 253.132 203.901 253.58 204.013 253.858C204.107 254.09 203.598 254.565 202.81 254.884C202.068 255.183 201.494 255.631 201.607 255.909C201.7 256.141 201.191 256.616 200.403 256.935C199.661 257.234 199.087 257.682 199.2 257.96C199.293 258.192 198.877 258.63 198.274 258.873C197.625 259.135 197.051 259.583 197.024 259.917C196.979 260.205 196.516 260.662 196.006 260.868C195.543 261.055 194.756 261.643 194.284 262.211C192.508 264.223 192.166 264.577 191.285 264.933C190.775 265.139 190.294 265.549 190.267 265.883C190.222 266.171 189.666 266.665 189.017 266.927C188.415 267.171 187.98 267.562 188.092 267.84C188.186 268.072 187.677 268.548 186.889 268.866C186.147 269.166 185.573 269.613 185.685 269.891C185.779 270.123 185.27 270.599 184.482 270.917C183.74 271.217 183.166 271.664 183.278 271.942C183.372 272.174 182.863 272.65 182.075 272.968C181.333 273.268 180.759 273.715 180.871 273.993C180.965 274.225 180.456 274.701 179.668 275.019C178.926 275.319 178.352 275.766 178.464 276.044C178.558 276.276 178.049 276.752 177.261 277.07C176.519 277.37 175.945 277.817 176.057 278.096C176.151 278.327 175.735 278.765 175.132 279.009C174.483 279.271 173.909 279.719 173.882 280.053C173.837 280.341 173.281 280.835 172.679 281.078C171.52 281.547 170.932 283.563 171.761 284.146C172.077 284.395 227.904 262.002 331.007 220.345L489.74 156.213L490.662 154.223C491.132 153.116 491.723 152.176 491.954 152.083C492.186 151.989 492.62 151.328 492.971 150.593C493.321 149.859 493.894 149.142 494.219 149.011C494.543 148.88 494.728 148.535 494.634 148.304C494.522 148.025 494.864 147.671 495.374 147.465C495.884 147.259 496.207 146.859 496.114 146.627C496.001 146.349 496.344 145.995 496.854 145.789C497.364 145.583 497.687 145.183 497.593 144.951C497.481 144.673 497.823 144.319 498.333 144.113C498.843 143.907 499.167 143.506 499.073 143.274C498.961 142.996 499.396 142.605 499.999 142.361C500.648 142.099 501.203 141.605 501.248 141.317C501.275 140.983 501.664 140.61 502.035 140.46C502.452 140.292 503.421 138.552 504.231 136.553C505.271 133.922 505.536 132.575 505.142 131.601C504.861 130.906 504.793 130.07 504.969 129.837C505.191 129.586 504.908 128.352 504.384 127.054C503.878 125.802 503.28 124.857 503.002 124.97C502.77 125.063 502.276 124.508 501.977 123.766C501.658 122.978 501.229 122.45 500.951 122.563C500.719 122.656 500.225 122.101 499.926 121.359C499.607 120.571 499.178 120.043 498.9 120.156C498.668 120.249 498.174 119.694 497.875 118.952C497.556 118.164 497.127 117.637 496.849 117.749C496.617 117.843 496.217 117.519 496.011 117.009C495.805 116.499 495.217 115.712 494.649 115.24C492.638 113.465 492.284 113.122 491.909 112.195C491.703 111.685 491.349 111.343 491.071 111.455C490.839 111.549 490.345 110.994 490.045 110.252C489.727 109.464 489.298 108.936 489.02 109.048C488.788 109.142 488.294 108.587 487.994 107.845C487.676 107.057 487.247 106.529 486.969 106.641C486.737 106.735 486.243 106.18 485.943 105.438C485.625 104.65 485.196 104.122 484.918 104.234C484.686 104.328 484.248 103.912 484.005 103.309C483.743 102.66 483.295 102.086 482.96 102.059C482.673 102.014 482.216 101.551 482.01 101.041C481.823 100.578 481.3 99.8181 480.816 99.4205C480.378 99.0042 479.624 98.3383 479.139 97.9408C478.702 97.5245 478.133 96.7836 477.927 96.2737C477.721 95.7637 477.367 95.4214 477.088 95.5338C476.857 95.6275 476.363 95.0721 476.063 94.3303C475.745 93.5422 475.316 93.0145 475.037 93.1269C474.806 93.2205 474.312 92.6651 474.012 91.9234C473.694 91.1353 473.265 90.6075 472.986 90.7199C472.755 90.8136 472.261 90.2582 471.961 89.5164C471.643 88.7283 471.214 88.2006 470.935 88.313C470.704 88.4066 470.266 87.9903 470.022 87.3877C469.76 86.7386 469.312 86.1645 468.978 86.1378C468.69 86.0924 468.234 85.6297 468.027 85.1198C467.672 84.239 467.318 83.8967 465.306 82.1209C464.738 81.6494 464.15 80.8622 463.944 80.3523C463.738 79.8423 463.384 79.5 463.106 79.6124C462.874 79.706 462.38 79.1507 462.081 78.4089C461.762 77.6208 461.333 77.0931 461.055 77.2054C460.823 77.2991 460.329 76.7437 460.03 76.002C459.711 75.2139 459.282 74.6861 459.004 74.7985C458.772 74.8921 458.372 74.5686 458.185 74.105C457.754 73.0387 454.438 70.1719 453.882 70.3967C453.697 70.4716 453.38 70.222 453.212 69.8048C452.856 68.9239 442.07 64.3839 441.142 64.7585C440.771 64.9084 440.4 64.7889 440.306 64.5571C440.194 64.279 439.701 64.2621 439.192 64.4682C438.682 64.6742 438.171 64.611 438.077 64.3792C437.965 64.101 437.473 64.0842 436.963 64.2902C436.453 64.4962 435.942 64.433 435.848 64.2012C435.736 63.923 435.151 63.9436 434.548 64.1871C433.899 64.4494 433.156 64.4798 432.924 64.3042C432.672 64.0822 431.856 64.1965 431.067 64.5149C430.326 64.8146 429.629 64.8263 429.536 64.5945C429.423 64.3163 426.66 65.2172 422.209 67.0154C417.898 68.7573 415.006 70.1415 414.933 70.4945Z" fill="#E2E2E2"/>
<path d="M99.4261 336.02C99.3807 336.308 98.3154 337.008 97.0173 337.532C95.7656 338.038 94.8206 338.636 94.933 338.914C95.0267 339.146 94.5177 339.621 93.7295 339.939C92.9878 340.239 92.4137 340.687 92.5261 340.965C92.6197 341.197 92.2961 341.597 91.7862 341.803C91.2762 342.009 90.9339 342.363 91.0463 342.641C91.14 342.873 90.8164 343.273 90.3064 343.479C89.7965 343.685 89.4542 344.039 89.5665 344.318C89.6602 344.549 89.4757 344.894 89.1512 345.025C88.5949 345.249 87.9397 346.431 85.7088 351.053C84.5288 353.471 83.1885 357.896 83.432 358.498C83.5631 358.823 83.4901 359.176 83.2119 359.288C82.9801 359.382 82.9169 359.893 83.1229 360.403C83.329 360.913 83.3121 361.405 83.0339 361.517C82.8021 361.611 82.7389 362.122 82.945 362.632C83.151 363.142 83.1341 363.634 82.856 363.746C82.6242 363.84 82.6359 364.536 82.9543 365.324C83.254 366.066 83.3308 366.79 83.0526 366.902C82.8208 366.996 83.0011 368.11 83.5068 369.361C84.0312 370.659 84.3141 371.893 84.0921 372.145C83.8425 372.461 88.4422 384.246 97.208 405.942C105.974 427.638 110.852 439.311 111.251 439.365C111.585 439.392 111.996 439.874 112.202 440.383C112.389 440.847 112.789 441.171 113.021 441.077C113.299 440.965 113.616 441.214 113.766 441.585C114.14 442.512 116.53 443.488 118.629 443.611C119.548 443.617 120.709 443.687 121.22 443.75C121.777 443.795 124.402 442.95 127.044 441.883C129.779 440.778 132.126 440.045 132.377 440.267C132.61 440.443 133.677 440.281 134.697 439.869C135.671 439.476 136.58 439.324 136.692 439.602C136.786 439.834 137.39 439.86 137.992 439.616C138.641 439.354 139.365 439.277 139.617 439.499C139.849 439.675 140.499 439.682 141.009 439.476C141.473 439.289 141.965 439.305 142.077 439.584C142.171 439.815 142.682 439.879 143.192 439.673C143.702 439.467 144.194 439.483 144.306 439.762C144.4 439.993 144.911 440.057 145.421 439.851C145.931 439.645 146.423 439.661 146.535 439.94C146.629 440.171 147.001 440.291 147.325 440.16C147.604 440.047 148.886 440.284 150.066 440.67C151.247 441.056 152.39 441.349 152.622 441.255C153.085 441.068 161.351 444.577 161.539 445.041C161.632 445.272 162.637 445.891 163.735 446.472C164.833 447.053 165.894 447.811 166.006 448.089C166.137 448.414 166.481 448.598 166.713 448.504C166.991 448.392 167.345 448.734 167.551 449.244C167.757 449.754 168.158 450.078 168.39 449.984C168.668 449.872 169.022 450.214 169.228 450.724C169.434 451.234 169.834 451.558 170.066 451.464C170.344 451.352 170.698 451.694 170.885 452.158C171.091 452.667 171.548 453.13 171.836 453.176C172.17 453.202 172.618 453.776 172.862 454.379C173.105 454.982 173.599 455.537 173.887 455.582C174.221 455.609 174.8 456.508 175.193 457.481C175.587 458.455 176.212 459.335 176.5 459.38C177.252 459.508 182.01 471.283 181.557 471.897C181.382 472.13 181.543 473.197 181.936 474.171C182.33 475.144 182.538 476.193 182.316 476.444C182.14 476.677 182.17 477.42 182.414 478.022C182.657 478.625 182.688 479.368 182.512 479.6C182.337 479.833 182.33 480.483 182.536 480.993C182.723 481.457 182.706 481.949 182.428 482.061C182.196 482.155 182.133 482.666 182.339 483.176C182.545 483.686 182.528 484.178 182.25 484.29C182.018 484.384 181.955 484.895 182.161 485.405C182.367 485.914 182.35 486.407 182.072 486.519C181.84 486.613 181.721 486.984 181.833 487.263C181.964 487.587 181.727 488.869 181.341 490.05C180.956 491.23 180.662 492.373 180.756 492.605C180.943 493.069 177.388 501.354 176.925 501.541C176.693 501.635 176.102 502.575 175.632 503.681C175.097 504.76 174.386 505.802 174.015 505.952C173.644 506.102 173.395 506.419 173.507 506.697C173.601 506.929 173.277 507.329 172.767 507.535C172.257 507.741 171.915 508.095 172.027 508.373C172.121 508.605 171.797 509.005 171.287 509.211C170.777 509.417 170.435 509.771 170.548 510.05C170.641 510.281 170.318 510.682 169.854 510.869C169.344 511.075 168.863 511.485 168.836 511.82C168.809 512.154 168.235 512.602 167.586 512.864C166.984 513.107 166.548 513.499 166.661 513.777C166.755 514.009 166.014 514.578 165.04 514.971C164.02 515.383 163.122 515.962 163.095 516.296C163.022 516.649 160.825 517.753 157.951 518.914C155.077 520.075 152.88 521.178 152.807 521.531C152.761 521.819 152.299 522.276 151.789 522.482C151.325 522.669 150.983 523.023 151.095 523.301C151.189 523.533 150.958 523.896 150.587 524.046C149.66 524.421 148.417 527.35 148.791 528.277C148.941 528.648 148.887 529.047 148.609 529.159C148.377 529.253 148.314 529.764 148.501 530.228C148.707 530.738 148.7 531.388 148.524 531.62C148.044 532.3 174.866 598.686 175.683 598.841C176.018 598.868 176.671 599.952 177.196 601.25C177.702 602.502 178.346 603.428 178.577 603.334C178.855 603.222 179.284 603.75 179.603 604.538C179.902 605.279 180.397 605.835 180.628 605.741C180.906 605.629 181.26 605.971 181.467 606.481C181.673 606.991 182.073 607.315 182.305 607.221C182.583 607.109 182.937 607.451 183.143 607.961C183.349 608.471 183.749 608.794 183.981 608.701C184.259 608.588 184.557 608.792 184.688 609.116C184.913 609.672 186.094 610.327 190.717 612.558C193.135 613.738 197.559 615.079 198.162 614.835C198.486 614.704 198.839 614.777 198.952 615.055C199.045 615.287 199.556 615.35 200.066 615.144C200.576 614.938 201.068 614.955 201.181 615.233C201.274 615.465 201.785 615.528 202.295 615.322C202.805 615.116 203.297 615.133 203.41 615.411C203.503 615.643 204.246 615.613 204.988 615.313C205.776 614.995 206.453 614.936 206.566 615.215C206.659 615.446 207.773 615.266 209.025 614.76C210.323 614.236 211.575 614 211.808 614.175C212.125 614.425 263.083 593.998 363.173 553.559L514.026 492.611L457.647 353.069L401.269 213.528L250.416 274.477C150.327 314.916 99.4805 335.621 99.4261 336.02ZM284.77 354.968C284.864 355.2 285.792 355.095 286.812 354.683C287.832 354.271 288.741 354.119 288.854 354.397C288.947 354.629 289.366 354.73 289.783 354.561C290.895 354.112 294.988 356.233 295.494 357.485C295.737 358.087 296.156 358.457 296.388 358.364C296.666 358.251 297.189 359.011 297.582 359.984C297.994 361.004 298.202 362.053 297.98 362.304C297.805 362.537 297.816 363.233 298.022 363.743C298.528 364.995 296.29 370.267 295.039 370.773C294.529 370.979 294.001 371.408 293.974 371.742C293.92 372.142 282.896 376.757 262.359 385.055C241.683 393.408 230.825 397.634 230.694 397.309C230.581 397.031 230.043 397.033 229.44 397.276C228.189 397.782 223.82 396.312 223.37 395.199C223.202 394.782 222.885 394.532 222.607 394.644C222.329 394.757 221.525 393.302 220.645 391.123C219.764 388.944 219.332 387.339 219.61 387.227C219.888 387.115 219.942 386.715 219.793 386.344C219.418 385.417 220.661 382.488 221.588 382.113C221.959 381.964 222.19 381.601 222.097 381.369C221.984 381.091 222.744 380.568 223.717 380.175C224.737 379.763 225.617 379.138 225.662 378.85C225.736 378.497 236.045 374.116 255.191 366.38C274.477 358.588 284.639 354.644 284.77 354.968ZM377.32 375.817C377.413 376.049 377.878 376.131 378.295 375.962C378.712 375.794 380.357 376.262 381.938 376.971C384.812 378.344 384.812 378.344 386.254 381.914C387.696 385.484 387.696 385.484 386.583 388.468C385.939 390.077 385.081 391.556 384.663 391.724C384.246 391.893 383.95 392.228 384.062 392.506C384.194 392.831 361.534 402.148 317.029 420.129C272.524 438.11 249.752 447.149 249.621 446.824C249.508 446.546 249.063 446.511 248.645 446.679C248.228 446.848 246.583 446.38 245.002 445.671C242.128 444.297 242.128 444.297 240.686 440.727C239.244 437.158 239.244 437.158 240.357 434.173C241.001 432.565 241.86 431.086 242.277 430.917C242.694 430.749 242.972 430.367 242.878 430.135C242.747 429.811 265.407 420.494 309.911 402.512C354.416 384.531 377.188 375.493 377.32 375.817ZM396.247 425.332C396.34 425.564 396.897 425.609 397.5 425.365C398.752 424.86 403.121 426.33 403.57 427.443C403.739 427.86 404.102 428.091 404.334 427.997C404.612 427.885 405.415 429.34 406.296 431.518C407.176 433.697 407.609 435.302 407.33 435.415C407.099 435.508 406.998 435.926 407.148 436.297C407.522 437.224 406.279 440.153 405.352 440.528C404.981 440.678 404.731 440.994 404.844 441.273C404.937 441.504 404.197 442.073 403.223 442.467C402.203 442.879 401.305 443.457 401.278 443.792C401.123 444.609 273.542 496.155 272.863 495.675C272.611 495.453 271.563 495.661 270.543 496.073C269.57 496.466 268.641 496.572 268.548 496.34C268.435 496.062 268.036 496.007 267.665 496.157C266.738 496.532 263.809 495.288 263.434 494.361C263.284 493.99 262.968 493.741 262.69 493.853C262.412 493.966 261.608 492.511 260.728 490.332C259.847 488.153 259.415 486.548 259.693 486.436C259.971 486.323 260.025 485.924 259.857 485.507C259.407 484.394 261.529 480.301 262.78 479.796C263.383 479.552 263.753 479.133 263.659 478.901C263.528 478.577 285.863 469.391 329.766 451.653C373.668 433.916 396.115 425.008 396.247 425.332Z" fill="#E2E2E2"/>
<path d="M476.191 345.577L532.569 485.118L574.478 468.186C601.969 457.079 616.47 451.059 616.524 450.659C616.569 450.371 617.635 449.671 618.933 449.147C620.184 448.641 621.111 447.997 621.017 447.765C620.905 447.487 621.479 447.04 622.221 446.74C623.009 446.421 623.518 445.946 623.424 445.714C623.312 445.436 623.654 445.082 624.164 444.876C624.674 444.67 624.997 444.27 624.904 444.038C624.791 443.76 625.134 443.406 625.644 443.2C626.154 442.994 626.477 442.593 626.384 442.362C626.271 442.083 626.474 441.786 626.799 441.655C627.402 441.411 629.653 437.374 630.573 434.845C632.348 430.029 632.743 428.737 632.518 428.181C632.387 427.856 632.506 427.485 632.738 427.391C633.016 427.279 633.033 426.786 632.827 426.277C632.621 425.767 632.684 425.256 632.916 425.162C633.194 425.05 633.211 424.557 633.005 424.048C632.799 423.538 632.862 423.027 633.094 422.933C633.372 422.821 633.295 422.097 632.996 421.355C632.677 420.567 632.666 419.871 632.897 419.777C633.176 419.665 632.949 418.57 632.443 417.318C631.919 416.02 631.682 414.767 631.858 414.535C632.108 414.218 627.545 402.526 618.817 380.922C610.032 359.18 605.304 347.878 604.98 348.009C604.748 348.103 604.254 347.547 603.954 346.806C603.636 346.018 603.253 345.471 603.022 345.565C602.836 345.64 602.176 345.206 601.551 344.595C600.908 343.938 599.672 343.413 598.752 343.407C597.88 343.382 597.108 343.208 597.033 343.023C596.94 342.791 596.374 342.858 595.771 343.102C595.122 343.364 594.379 343.394 594.147 343.219C593.914 343.043 591.827 343.617 589.509 344.553C587.052 345.546 585.308 346.035 585.195 345.756C585.083 345.478 584.174 345.63 583.154 346.042C582.134 346.454 581.206 346.56 581.112 346.328C581 346.05 580.322 346.108 579.534 346.426C578.792 346.726 578.05 346.756 577.956 346.524C577.844 346.246 577.166 346.304 576.378 346.623C575.636 346.922 574.893 346.953 574.8 346.721C574.687 346.443 574.195 346.426 573.685 346.632C573.175 346.838 572.665 346.775 572.571 346.543C572.458 346.265 572.105 346.192 571.781 346.323C571.456 346.454 570.546 346.337 569.784 346.051C569.021 345.766 568.204 345.611 567.879 345.742C567.601 345.855 566.849 345.727 566.244 345.432C565.64 345.137 564.217 344.687 563.093 344.44C560.603 343.883 558.148 342.879 557.942 342.369C557.848 342.137 556.602 341.455 555.132 340.754C553.682 340.1 552.379 339.278 552.229 338.907C552.079 338.536 551.79 338.222 551.568 338.204C550.983 338.224 545.786 333.637 545.486 332.895C545.336 332.525 545.038 332.321 544.76 332.434C544.529 332.527 544.016 331.926 543.66 331.045C543.304 330.164 542.763 329.358 542.428 329.331C542.14 329.286 541.478 328.313 541.028 327.201C540.579 326.088 539.962 325.097 539.628 325.07C539.34 325.025 538.303 323.125 537.385 320.853C536.467 318.582 535.894 316.494 536.069 316.262C536.291 316.01 536.046 314.869 535.596 313.756C535.147 312.644 534.948 311.484 535.124 311.251C535.346 311 535.175 310.044 534.819 309.163C534.463 308.282 534.414 307.493 534.646 307.4C534.924 307.287 534.997 306.934 534.847 306.563C534.548 305.822 535.099 298.912 535.534 298.52C535.682 298.353 535.653 297.879 535.503 297.508C535.334 297.091 535.443 296.292 535.738 295.688C536.033 295.083 536.483 293.661 536.73 292.537C537.023 291.394 537.482 289.86 537.786 289.144C538.09 288.428 538.874 287.033 539.493 286.028C540.13 285.069 540.841 283.758 541.07 283.125C541.3 282.493 541.8 281.86 542.124 281.729C542.495 281.579 542.929 280.919 543.094 280.259C543.259 279.599 543.739 278.919 544.203 278.732C544.666 278.545 544.944 278.163 544.85 277.931C544.738 277.653 545.08 277.299 545.59 277.093C546.1 276.887 546.423 276.487 546.33 276.255C546.217 275.977 546.652 275.585 547.255 275.342C547.904 275.08 548.459 274.586 548.505 274.298C548.532 273.963 549.106 273.516 549.708 273.272C550.311 273.029 550.866 272.535 550.912 272.247C550.939 271.912 551.837 271.334 552.857 270.921C553.831 270.528 554.571 269.959 554.478 269.727C554.365 269.449 556.006 268.571 558.463 267.578C560.92 266.585 562.56 265.707 562.448 265.429C562.335 265.151 562.77 264.759 563.373 264.516C564.161 264.197 565.011 262.829 566.033 260.421C567.055 258.013 567.449 256.452 567.131 255.663C566.887 255.061 566.913 254.457 567.145 254.364C567.469 254.232 563.019 242.818 554.235 221.076C545.506 199.472 540.666 187.892 540.267 187.838C539.979 187.793 539.279 186.727 538.754 185.429C538.248 184.178 537.651 183.233 537.373 183.345C537.141 183.439 536.647 182.883 536.347 182.142C536.029 181.353 535.6 180.826 535.322 180.938C535.09 181.032 534.69 180.708 534.484 180.198C534.278 179.688 533.924 179.346 533.645 179.458C533.414 179.552 533.013 179.228 532.807 178.718C532.601 178.208 532.247 177.866 531.969 177.979C531.737 178.072 531.393 177.888 531.262 177.563C531.037 177.007 529.856 176.352 525.233 174.121C522.815 172.941 518.391 171.6 517.788 171.844C517.464 171.975 517.092 171.856 516.998 171.624C516.886 171.346 516.394 171.329 515.884 171.535C515.374 171.741 514.863 171.678 514.769 171.446C514.657 171.168 514.165 171.151 513.655 171.357C513.145 171.563 512.634 171.5 512.54 171.268C512.428 170.99 511.75 171.048 510.962 171.366C510.221 171.666 509.478 171.696 509.384 171.465C509.272 171.186 508.177 171.413 506.879 171.938C505.627 172.443 504.467 172.642 504.374 172.41C504.243 172.086 489.815 177.753 462 188.991L419.813 206.036L476.191 345.577Z" fill="#E2E2E2"/>
</g>
<defs>
<clipPath id="clip0_1493_4313">
<rect width="512" height="512" fill="white" transform="translate(0.741699 192.54) rotate(-22)"/>
</clipPath>
</defs>
</svg>
