<svg width="22" height="15" viewBox="0 0 22 15" fill="none" xmlns="http://www.w3.org/2000/svg">
<g clip-path="url(#clip0_1241_104)">
<path d="M15.8505 4.68693H16.0249C16.3526 4.68693 16.6173 4.42118 16.6173 4.09201V1.50996H15.2581V4.09201C15.2581 4.42118 15.5227 4.68693 15.8505 4.68693Z" fill="black"/>
<path d="M16.0249 5.59593H15.8505C15.5233 5.59593 15.2581 5.86229 15.2581 6.19086V8.80612C15.2581 9.13469 15.5233 9.40105 15.8505 9.40105H16.0249C16.352 9.40105 16.6173 9.13469 16.6173 8.80612V6.19086C16.6173 5.86229 16.352 5.59593 16.0249 5.59593Z" fill="black"/>
<path d="M16.0249 10.3131H15.8505C15.5227 10.3131 15.2581 10.5788 15.2581 10.908V13.49H16.6173V10.908C16.6173 10.5788 16.3526 10.3131 16.0249 10.3131Z" fill="black"/>
<path d="M2.79962 7.33541C2.79962 6.40829 2.34856 5.56271 1.65392 5.15804V6.03382C1.99673 6.35092 2.1982 6.83109 2.1982 7.33541C2.1982 7.83974 1.99673 8.31991 1.65392 8.637V9.51278C2.34555 9.10509 2.79962 8.26253 2.79962 7.33541Z" fill="black"/>
<path d="M1.50356 8.57057V9.9235L1.5637 9.89934C2.48388 9.50372 3.10034 8.47393 3.10034 7.33843C3.10034 6.20294 2.48388 5.17314 1.5637 4.77753L1.50356 4.75337V6.29958C1.50356 6.29958 1.4765 6.28146 1.46146 6.2724C1.73511 6.53211 1.89749 6.9247 1.89749 7.33843C1.89749 7.77934 1.71406 8.19911 1.40733 8.45883L1.36523 8.49507C1.41335 8.46789 1.46146 8.44071 1.50356 8.41051V8.57661V8.57057ZM1.65392 8.64002C1.99673 8.32293 2.1982 7.84276 2.1982 7.33843C2.1982 6.8341 1.99673 6.35394 1.65392 6.03684V5.16106C2.34555 5.56875 2.79962 6.41131 2.79962 7.33843C2.79962 8.26555 2.34856 9.11113 1.65392 9.5158V8.64002Z" fill="black"/>
<path d="M1.50355 6.10328V5.28186C1.269 5.19428 1.0164 5.14597 0.751777 5.14597C0.487151 5.14597 0.234554 5.19428 0 5.28186V5.34528C0 5.75297 0.339803 6.05496 0.742756 6.05195C0.742756 6.05195 0.74877 6.05195 0.751777 6.05195C1.0164 6.05195 1.25697 6.1365 1.46145 6.2724C1.47649 6.28146 1.49153 6.2875 1.50355 6.29958V6.1063V6.10328Z" fill="black"/>
<path d="M1.50355 9.42218V8.40749C1.45845 8.44071 1.41334 8.46788 1.36523 8.49204C1.18179 8.5917 0.974303 8.6521 0.751777 8.6521C0.751777 8.6521 0.745763 8.6521 0.742756 8.6521C0.336796 8.6521 0 8.95107 0 9.35876V9.42218C0.234554 9.50976 0.487151 9.55808 0.751777 9.55808C1.0164 9.55808 1.269 9.50976 1.50355 9.42218Z" fill="black"/>
<path d="M19.9792 0H16.8248C16.8248 0.208375 16.7436 0.395611 16.6143 0.537548C16.4699 0.697604 16.2594 0.800282 16.0279 0.800282C15.7121 0.800282 15.4445 0.616066 15.3152 0.350312C15.2641 0.244614 15.231 0.126837 15.231 0H2.02078C0.908146 0 0 0.912019 0 2.02939V5.27884C0.234554 5.19126 0.487151 5.14294 0.751777 5.14294C1.0164 5.14294 1.269 5.19126 1.50355 5.27884V2.02939C1.50355 1.7425 1.7351 1.50997 2.02078 1.50997H19.9762C20.2619 1.50997 20.4934 1.7425 20.4934 2.02939V4.76243L20.4333 4.78659C19.5131 5.1822 18.8967 6.212 18.8967 7.34749C18.8967 8.48299 19.5131 9.51278 20.4333 9.9084L20.4934 9.93256V12.9615C20.4934 13.2484 20.2619 13.481 19.9762 13.481H2.02078C1.7351 13.481 1.50355 13.2484 1.50355 12.9615V9.41615C1.269 9.50373 1.0164 9.55204 0.751777 9.55204C0.487151 9.55204 0.234554 9.50373 0 9.41615V12.9615C0 14.0819 0.908146 14.9909 2.02078 14.9909H15.228C15.228 14.8641 15.2611 14.7463 15.3122 14.6406C15.4415 14.3749 15.7121 14.1907 16.0249 14.1907C16.2594 14.1907 16.4669 14.2933 16.6113 14.4534C16.7406 14.5953 16.8218 14.7826 16.8218 14.9909H19.9762C21.0919 14.9909 21.997 14.0789 21.997 12.9615V9.35273C21.997 8.94504 21.6572 8.64304 21.2542 8.64606C21.2542 8.64606 21.2482 8.64606 21.2452 8.64606C20.9986 8.64606 20.7731 8.57359 20.5776 8.45279C20.2799 8.19307 20.0995 7.78236 20.0995 7.34749C20.0995 6.91262 20.2769 6.50191 20.5776 6.2422C20.7731 6.1214 20.9986 6.04892 21.2452 6.04892C21.2452 6.04892 21.2512 6.04892 21.2542 6.04892C21.6602 6.04892 21.997 5.74995 21.997 5.34226V2.02939C21.997 0.908999 21.0888 0 19.9762 0H19.9792Z" fill="black"/>
</g>
<defs>
<clipPath id="clip0_1241_104">
<rect width="22" height="15" fill="white"/>
</clipPath>
</defs>
</svg>
