<svg width="40" height="40" viewBox="0 0 40 40" fill="none" xmlns="http://www.w3.org/2000/svg">
<circle cx="20" cy="20" r="19.5" fill="white" stroke="black"/>
<path fill-rule="evenodd" clip-rule="evenodd" d="M23.8244 15.354C23.8244 13.194 22.0737 11.437 19.9214 11.437C17.7692 11.437 16.0185 13.194 16.0185 15.354C16.0185 17.514 17.7692 19.271 19.9214 19.271C22.0737 19.271 23.8244 17.514 23.8244 15.354ZM25.2552 15.354C25.2552 18.306 22.8628 20.7079 19.9214 20.7079C16.9801 20.7079 14.5877 18.306 14.5877 15.354C14.5877 12.402 16.9801 10 19.9214 10C22.8628 10 25.2552 12.402 25.2552 15.354ZM12 26.31C12 23.02 16.5207 22.64 19.9214 22.64C21.8804 22.64 27.8429 22.64 27.8429 26.33C27.8429 29.619 23.3222 30 19.9214 30C19.5787 30 19.2409 29.995 18.9091 29.987C18.5145 29.975 18.2036 29.644 18.2156 29.247C18.2265 28.851 18.5683 28.553 18.9509 28.55C19.2688 28.56 19.5926 28.564 19.9214 28.564C24.2279 28.564 26.412 27.813 26.412 26.33C26.412 24.834 24.2279 24.076 19.9214 24.076C15.615 24.076 13.4308 24.828 13.4308 26.31C13.4308 26.795 13.6022 27.498 15.0899 28.004C15.4645 28.131 15.6648 28.539 15.5382 28.914C15.4107 29.288 15.0062 29.494 14.6305 29.364C12.4563 28.625 12 27.295 12 26.31Z" fill="black"/>
</svg>
